<svg width="1728" height="1117" viewBox="0 0 1728 1117" fill="none" xmlns="http://www.w3.org/2000/svg">
<g clip-path="url(#clip0_98_4674)">
<rect width="1728" height="1117" fill="white"/>
<rect x="-82" y="-1" width="1923" height="1129" fill="#6B89A9"/>
<rect x="-82" y="-1" width="1923" height="1129" stroke="black"/>
<path d="M956.17 955.5L962 753.459L918.275 730.5H859.976L818 753.459V955.5H956.17Z" fill="#383A39" fill-opacity="0.8"/>
<path d="M1365.38 533.955V669.5H1548.66C1548.92 639.721 1549.27 578.755 1548.66 573.122C1547.9 566.081 1535.33 560.36 1534.56 550.238C1533.96 542.141 1540.15 526.914 1543.33 520.313V391.369H1509.42L1539.14 348.681V232.5H1509.42L1493.79 238.221L1365.38 250.543V264.186V269.907V364.084C1367.03 376.553 1370.95 404.395 1373.38 416.014C1375.82 427.632 1369.07 452.247 1365.38 463.102L1357 484.226L1365.38 495.228V513.271V533.955Z" fill="#0F0D0C" fill-opacity="0.8"/>
<path d="M1349.58 892.751L1150.03 897.991L1142.45 580.368L1149.02 569.422L1150.98 556.801L1150.48 537.96L1140.78 516.668L1142.16 424.158L1141.26 390.065L1141.1 383.785L1146.31 379.159L1154.69 378.939L1154.22 360.995L1149.46 353.938L1145.46 346.86L1142.94 337.948L1148.66 323.434L1152.87 309.856L1144.45 308.281L1156.45 300.784L1149.59 300.964L1125.98 301.584L1141.83 295.781L1156.26 293.606L1158.24 281.883L1151.31 279.372L1147.5 279.472L1141.22 272.454L1160.26 271.954L1160.03 262.982L1148.6 263.282L1137.78 257.282L1155.1 249.644L1142.85 247.273L1137.28 238.441L1159.3 235.17L1146.26 231.921L1136.76 218.703L1158.85 218.123L1158.66 210.946L1130.48 211.686L1129.56 176.695L1144.84 178.09L1144.61 169.118L1157.25 157.115L1183.69 148.34L1206.54 147.74L1219.58 150.989L1233.41 155.114L1255.5 154.534L1260.21 159.797L1248.12 163.706L1245.14 166.478L1248.38 173.575L1258.33 175.11L1261.06 192.096L1269.51 194.568L1274.98 199.811L1282.46 194.228L1301.5 193.728L1311.4 193.468L1315.82 216.694L1299.82 217.114L1302.49 231.409L1318.55 233.681L1320.19 238.127L1316.38 238.227L1312.65 241.018L1310.48 245.564L1316.64 248.096L1320.57 252.482L1308.38 252.802L1305.48 258.265L1313.09 258.065L1323.76 257.785L1324.02 267.654L1317.16 267.834L1324.43 399.62L1329.52 419.238L1321.19 421.252L1317.81 437.501L1318.11 449.165L1331.92 452.394L1324.49 459.771L1329.08 460.548L1336.13 467.546L1334.79 474.763L1329.41 473.109L1330 495.538L1333.47 511.608L1327.38 511.768L1327.83 528.814L1338.1 542.909L1324.47 545.961L1316.18 549.769L1316.42 558.741L1328.6 558.421L1331.82 564.622L1316.58 565.022L1332.29 582.565L1349.58 892.751Z" fill="#2C2D20" fill-opacity="0.7"/>
<g filter="url(#filter0_i_98_4674)">
<path d="M767.156 465.828L768 408.41L727.5 375.5V549.853L758.719 552.654L759.563 616.374L751.969 638.781L739.313 653.485C739.313 660.767 736.5 727.941 735.094 760.618L714 787.226V1029.5H767.156V877.18L735.094 855.519L739.313 800.321L768 780.058L767.156 696.212L756.146 671.756H767.156V554.055V493.836L759.563 472.13L767.156 465.828Z" fill="#1E1E1E"/>
<path d="M767.156 465.828L768 408.41L727.5 375.5V549.853L758.719 552.654L759.563 616.374L751.969 638.781L739.313 653.485C739.313 660.767 736.5 727.941 735.094 760.618L714 787.226V1029.5H767.156V877.18L735.094 855.519L739.313 800.321L768 780.058L767.156 696.212L756.146 671.756H767.156V554.055V493.836L759.563 472.13L767.156 465.828Z" stroke="black"/>
</g>
<g filter="url(#filter1_i_98_4674)">
<path d="M676 1034.5H646V689.247L656 675.269L652 643.12L665.333 592.8L652 544.577L665.333 534.093L648.667 451.624L646 340.5L676 348.887V1034.5Z" fill="#5A5B5A"/>
</g>
<path d="M676 1034.5H646V689.247L656 675.269L652 643.12L665.333 592.8L652 544.577L665.333 534.093L648.667 451.624L646 340.5L676 348.887V1034.5Z" stroke="#2A3024" stroke-opacity="0.5"/>
<g filter="url(#filter2_i_98_4674)">
<path d="M356 357.072L646 344.5V461.843L638.055 489.782L626.799 495.369H638.055L626.799 524.006V535.182H619.516L599.653 586.869L606.274 620.395L619.516 622.491L612.895 625.983V656.716L623.489 679.067L625.475 710.498L646 725.864V937.5H356V357.072Z" fill="#454645"/>
<path d="M356 357.072L646 344.5V461.843L638.055 489.782L626.799 495.369H638.055L626.799 524.006V535.182H619.516L599.653 586.869L606.274 620.395L619.516 622.491L612.895 625.983V656.716L623.489 679.067L625.475 710.498L646 725.864V937.5H356V357.072Z" stroke="#3D4340"/>
</g>
<g filter="url(#filter3_i_98_4674)">
<path d="M335 346.794L339.815 359.5L642.479 347.5L673.433 353.853L681 344.676L642.479 335.5L335 346.794Z" fill="#363636"/>
<path d="M335 346.794L339.815 359.5L642.479 347.5L673.433 353.853L681 344.676L642.479 335.5L335 346.794Z" stroke="#2F3D3A" stroke-opacity="0.5"/>
</g>
<path d="M767 366.5L761.511 376.382L726.518 378.5L673 350.265L676.431 345.324L678.489 342.5L725.146 366.5H745.044H767Z" fill="#363636"/>
<g filter="url(#filter4_i_98_4674)">
<path d="M761.781 376.5H727V792.5L743.406 764.534C744.5 751.483 746.688 722.025 746.688 708.601V656.863L756.531 640.782L761.781 620.507V584.15V572.265V556.184H753.906L736.844 553.387L746.688 542.9V549.192H766.375L761.781 532.413L755.875 525.421L749.312 519.129L744.062 505.845L749.312 493.959L759.156 488.366L746.688 479.976L738.812 468.09L749.312 448.513L763.75 435.929L761.781 430.335L755.875 426.14L753.906 417.75L761.632 409.361L769 411.458L761.781 376.5Z" fill="#4D4E4D"/>
<path d="M761.781 376.5H727V792.5L743.406 764.534C744.5 751.483 746.688 722.025 746.688 708.601V656.863L756.531 640.782L761.781 620.507V584.15V572.265V556.184H753.906L736.844 553.387L746.688 542.9V549.192H766.375L761.781 532.413L755.875 525.421L749.312 519.129L744.062 505.845L749.312 493.959L759.156 488.366L746.688 479.976L738.812 468.09L749.312 448.513L763.75 435.929L761.781 430.335L755.875 426.14L753.906 417.75L761.632 409.361L769 411.458L761.781 376.5Z" stroke="#1B2F29" stroke-opacity="0.5"/>
</g>
<g filter="url(#filter5_i_98_4674)">
<path d="M676 1032.5V350.5L727 376.355V1032.5H676Z" fill="#777977"/>
<path d="M676 1032.5V350.5L727 376.355V1032.5H676Z" stroke="#1B2F29" stroke-opacity="0.5"/>
</g>
<g filter="url(#filter6_i_98_4674)">
<rect x="523" y="377.5" width="14" height="114" fill="#292B29" fill-opacity="0.5"/>
</g>
<g filter="url(#filter7_i_98_4674)">
<rect x="560" y="377.5" width="14" height="114" fill="#292B29" fill-opacity="0.5"/>
</g>
<g filter="url(#filter8_i_98_4674)">
<rect x="541" y="377.5" width="15" height="114" fill="#292B29" fill-opacity="0.5"/>
</g>
<g filter="url(#filter9_i_98_4674)">
<rect x="402" y="632.5" width="15" height="78" fill="#292B29" fill-opacity="0.5"/>
</g>
<g filter="url(#filter10_i_98_4674)">
<rect x="439" y="632.5" width="14" height="78" fill="#292B29" fill-opacity="0.5"/>
</g>
<g filter="url(#filter11_i_98_4674)">
<rect x="421" y="632.5" width="14" height="78" fill="#292B29" fill-opacity="0.5"/>
</g>
<g filter="url(#filter12_i_98_4674)">
<rect x="402" y="509.5" width="15" height="96" fill="#292B29" fill-opacity="0.5"/>
</g>
<g filter="url(#filter13_i_98_4674)">
<rect x="439" y="509.5" width="14" height="96" fill="#292B29" fill-opacity="0.5"/>
</g>
<g filter="url(#filter14_i_98_4674)">
<rect x="421" y="509.5" width="14" height="96" fill="#292B29" fill-opacity="0.5"/>
</g>
<g filter="url(#filter15_i_98_4674)">
<rect x="517" y="731.5" width="15" height="113" fill="#292B29" fill-opacity="0.5"/>
</g>
<g filter="url(#filter16_i_98_4674)">
<rect x="555" y="731.5" width="14" height="113" fill="#292B29" fill-opacity="0.5"/>
</g>
<g filter="url(#filter17_i_98_4674)">
<rect x="536" y="731.5" width="15" height="113" fill="#292B29" fill-opacity="0.5"/>
</g>
<g filter="url(#filter18_i_98_4674)">
<rect x="402" y="731.5" width="15" height="113" fill="#292B29" fill-opacity="0.5"/>
</g>
<g filter="url(#filter19_i_98_4674)">
<rect x="439" y="731.5" width="14" height="113" fill="#292B29" fill-opacity="0.5"/>
</g>
<g filter="url(#filter20_i_98_4674)">
<rect x="421" y="731.5" width="14" height="113" fill="#292B29" fill-opacity="0.5"/>
</g>
<g filter="url(#filter21_i_98_4674)">
<rect x="517" y="632.5" width="15" height="78" fill="#292B29" fill-opacity="0.5"/>
</g>
<g filter="url(#filter22_i_98_4674)">
<rect x="555" y="632.5" width="14" height="78" fill="#292B29" fill-opacity="0.5"/>
</g>
<g filter="url(#filter23_i_98_4674)">
<rect x="536" y="632.5" width="15" height="78" fill="#292B29" fill-opacity="0.5"/>
</g>
<path d="M1149 716L537.5 30L528 40L1139 720.5L1149 716Z" fill="#2F2C29"/>
<path d="M1386 641.5L816.5 -7.5H894L1395.5 595L1386 641.5Z" fill="#484538"/>
<path d="M643 -1H625L1219.5 683.5L1232.5 678.5L643 -1Z" fill="#2F2C29"/>
<path d="M1603.5 531.5L1591.5 537L1134 -8H1157L1603.5 531.5Z" fill="#262524"/>
<path d="M1302 1005.5L1158 841.5L1355 772L1509 932.5L1302 1005.5Z" fill="#161614"/>
<path d="M1104 754.5L480 94L498 68.5L1124 717.5L1104 754.5Z" fill="#696553"/>
<path d="M1750.5 638.5L1475.5 739.5L1650 951.5L1840 884V739.5L1750.5 638.5Z" fill="#161614"/>
<path d="M1303 977.5L1196.5 849.5L1350.5 795.5L1472 939L1303 977.5Z" fill="#1E1E1C"/>
<path d="M1756 669.5L1515 749L1670 908.5L1841.5 853V765.5L1756 669.5Z" fill="#1E1E1C"/>
<path d="M1103 756L1121 714.5L1259.5 655L1282 680.5L1103 756Z" fill="#8B897F"/>
<path d="M1384.5 643L1394 597L1670 480L1700.5 515L1384.5 643Z" fill="#8B897F"/>
<path d="M710 15.5L587 172L599.5 185.5L720 27L710 15.5Z" fill="#36342F"/>
<path d="M712 306.5L700.5 295L825.5 150.5L838 164.5L712 306.5Z" fill="#2F2D27"/>
<path d="M806.5 423L798 414.5L939 284L951.5 295L806.5 423Z" fill="#2F2D27"/>
<path d="M914.5 534.5L903.5 524.5L1054 416.5L1064 428.5L914.5 534.5Z" fill="#2F2D27"/>
<path d="M1006 639L996 626L1161 538L1170.5 551.5L1006 639Z" fill="#2F2D27"/>
<path d="M920.5 66L909 54L975.5 -7H1000L920.5 66Z" fill="#2F2D27"/>
<path d="M1045 214L1034.5 202.5L1275 -7L1289 0.5L1045 214Z" fill="#2F2D27"/>
<path d="M1170.5 359L1160.5 346.5L1418.5 165L1431 180.5L1170.5 359Z" fill="#2F2D27"/>
<path d="M1285.5 493L1273.5 479L1544 326L1557.5 343L1285.5 493Z" fill="#2F2D27"/>
<path d="M1598.5 66L1583.5 50L1601.5 40H1637L1598.5 66Z" fill="#2F2D27"/>
<path d="M1737.5 248.5L1724.5 232.5L1841 167V192.5L1737.5 248.5Z" fill="#2F2D27"/>
<path d="M880.5 997L222.5 388.5L170.5 419.5L792.5 997H880.5Z" fill="#25231D"/>
<path d="M11.5 667L-74 606.099V-18L563 -3L420.5 187.5L157.5 377.586L11.5 667Z" fill="#222018"/>
<path d="M152.5 435L178 416L834 1011.5H786L152.5 435Z" fill="#181713"/>
<path d="M514.5 205.5L153.5 435.5L82.5 389L459.5 154.5L514.5 205.5Z" fill="#1E1D19"/>
<path d="M-4.5 735.5L155.5 431L102 381L-45.5 677.5L-94.5 650V693.5L-4.5 735.5Z" fill="#1E1D19"/>
<path d="M447 938.5L-94 643.5V692L345.5 938.5H447Z" fill="#1E1D19"/>
<path d="M516.5 935L-92 601V652.5L432.5 935H516.5Z" fill="#28261F"/>
<path d="M-43.3047 578.081L-19.116 530.972L684.338 959.467L599.457 961.351L-43.3047 578.081Z" fill="#1E1D19"/>
<path d="M72.4998 587.5L83.4912 566.82L756.669 975.276L760.415 1007.66L72.4998 587.5Z" fill="#28261F"/>
<rect x="-94" y="934.5" width="1937" height="194" fill="#1D2219"/>
<path d="M416.5 180.5L480 93.5L1104.5 752.5L1282 680L691.5 -2.5H827.5L1386.5 641L1697.5 514.5L1282 -2.5H1697.5L1842 384V977L1367 1116L416.5 180.5Z" fill="#181713"/>
<path d="M1431 782.5C1462 823.576 1450 879.5 1447.5 920L1450.5 915C1470.37 855.5 1458 816 1431 782.5Z" fill="#2A3024"/>
<path d="M56.3595 1060.5C50.246 991.019 37.9406 868.029 26.0708 790.816C13.2036 739.88 3.76979 706.961 12.2178 725.928C16.4635 735.459 21.2309 759.332 26.0708 790.816C41.1113 850.355 60.843 934.512 62.1896 989.198V745.124C67.1868 812.77 76.3484 956.289 73.017 989.198C78.2917 966.344 91.6731 923.929 103 937.092C95.7819 934.35 80.5127 955.192 77.1813 1060.5H56.3595Z" fill="#17240C"/>
<path d="M1.33124 1040.5C14.9805 989.218 36.8003 896.708 43.778 834.422C43.9549 813.465 43.8026 794.185 43.4692 778.5C46.992 789.101 46.5919 809.304 43.778 834.422C43.1078 913.818 37.7117 1017.28 19.5272 1040.5H1.33124Z" fill="#17240C"/>
<path d="M-81.9871 937.796C-78.1564 984.746 -43.9991 1025.83 -27.3992 1040.5H-52.299C-76.8156 1032.95 -82.3063 968.887 -81.9871 937.796Z" fill="#17240C"/>
<path d="M24 835.5C-73.9084 959.295 -82 1007.33 -82 1114.5H-65.8168C-57.7252 959.295 -19.6946 916.798 24 835.5Z" fill="#17240C"/>
<path d="M25.1526 1061.5C15.0222 1004.15 -1.17213 900.694 -6.35086 831.038C-6.48216 807.602 -6.3691 786.04 -6.12171 768.5C-8.73627 780.356 -8.43928 802.949 -6.35086 831.038C-5.85342 919.829 -1.84853 1035.54 11.6478 1061.5H25.1526Z" fill="#2A3024"/>
<path d="M86.9904 946.644C84.1473 999.15 58.7962 1045.09 46.476 1061.5H64.9563C83.1522 1053.06 87.2274 981.413 86.9904 946.644Z" fill="#2A3024"/>
<path d="M1495.5 919.5H1484C1486.33 916.5 1490.9 908.8 1490.5 902C1490 893.5 1482.5 892.5 1476 887.5C1470.8 883.5 1474.83 869.833 1477.5 863.5C1472.5 885 1492 889.5 1495.5 894C1498.3 897.6 1496.67 912.5 1495.5 919.5Z" fill="#2A3024"/>
<path d="M1720.96 1040.5C1732.58 971.798 1751.17 847.862 1757.11 764.418C1757.26 736.342 1757.13 710.513 1756.84 689.5C1759.84 703.702 1759.5 730.768 1757.11 764.418C1756.54 870.785 1751.94 1009.4 1736.46 1040.5H1720.96Z" fill="#192113"/>
<path d="M1650.01 902.908C1653.27 965.807 1682.36 1020.84 1696.5 1040.5H1675.29C1654.41 1030.39 1649.74 944.56 1650.01 902.908Z" fill="#192113"/>
<path d="M1679 895.5C1624.5 954.957 1620 978.03 1620 1029.5H1629.01C1633.51 954.957 1654.68 934.546 1679 895.5Z" fill="#192113"/>
<path d="M1640.3 992.5H1657.37C1653.91 987.196 1647.13 973.584 1647.72 961.562C1648.46 946.536 1659.6 944.768 1669.26 935.929C1676.98 928.857 1670.99 904.696 1667.03 893.5C1674.45 931.509 1645.49 939.464 1640.3 947.42C1636.14 953.784 1638.56 980.125 1640.3 992.5Z" fill="#192113"/>
<path d="M1777.61 1013.5C1784.24 980.19 1797.6 921.227 1810.48 884.21C1824.44 859.791 1834.68 844.009 1825.51 853.102C1820.9 857.672 1815.73 869.117 1810.48 884.21C1794.16 912.754 1772.74 953.1 1771.28 979.317V862.305C1765.86 894.735 1755.92 963.54 1759.53 979.317C1753.81 968.361 1739.29 948.026 1727 954.337C1734.83 953.022 1751.4 963.014 1755.02 1013.5H1777.61Z" fill="#192113"/>
<path d="M1650.92 1024.5C1658.28 1000.03 1670.04 955.897 1673.8 926.18C1673.9 916.182 1673.82 906.983 1673.64 899.5C1675.53 904.558 1675.32 914.196 1673.8 926.18C1673.44 964.06 1670.53 1013.42 1660.73 1024.5H1650.92Z" fill="#192113"/>
<path d="M1606.01 975.5C1608.07 997.9 1626.48 1017.5 1635.43 1024.5H1622.01C1608.79 1020.9 1605.83 990.333 1606.01 975.5Z" fill="#192113"/>
<path d="M1649.27 983.5C1653.11 970.83 1660.84 948.402 1668.29 934.322C1676.36 925.034 1682.28 919.031 1676.98 922.49C1674.32 924.228 1671.32 928.581 1668.29 934.322C1658.85 945.179 1646.46 960.526 1645.62 970.498V925.99C1642.48 938.326 1636.73 964.497 1638.82 970.498C1635.51 966.33 1627.11 958.596 1620 960.996C1624.53 960.496 1634.11 964.297 1636.21 983.5H1649.27Z" fill="#192113"/>
<path d="M1780.8 1013.5C1791.25 970.047 1807.96 891.661 1813.3 838.884C1813.43 821.127 1813.32 804.79 1813.06 791.5C1815.76 800.483 1815.45 817.601 1813.3 838.884C1812.79 906.159 1808.65 993.828 1794.73 1013.5H1780.8Z" fill="#192113"/>
<path d="M1717.01 926.476C1719.94 966.258 1746.09 1001.07 1758.8 1013.5H1739.74C1720.97 1007.11 1716.77 952.82 1717.01 926.476Z" fill="#192113"/>
<path d="M1770 897.5C1715.5 949.414 1711 969.56 1711 1014.5H1720.01C1724.51 949.414 1745.68 931.593 1770 897.5Z" fill="#192113"/>
<path d="M1615.45 1029.5C1626.01 986.047 1642.88 907.661 1648.28 854.884C1648.42 837.127 1648.3 820.79 1648.04 807.5C1650.77 816.483 1650.46 833.601 1648.28 854.884C1647.76 922.159 1643.59 1009.83 1629.52 1029.5H1615.45Z" fill="#192113"/>
<path d="M1551.01 942.476C1553.97 982.258 1580.39 1017.07 1593.23 1029.5H1573.97C1555.01 1023.11 1550.76 968.82 1551.01 942.476Z" fill="#192113"/>
<path d="M1647.37 994.5C1641 961.19 1628.17 902.227 1615.8 865.21C1602.38 840.791 1592.55 825.009 1601.35 834.102C1605.78 838.672 1610.75 850.117 1615.8 865.21C1631.48 893.754 1652.05 934.1 1653.45 960.317V843.305C1658.66 875.735 1668.21 944.54 1664.74 960.317C1670.24 949.361 1684.19 929.026 1696 935.337C1688.47 934.022 1672.56 944.014 1669.08 994.5H1647.37Z" fill="#192113"/>
<path d="M1483 921C1490.13 896.533 1501.52 852.397 1505.16 822.68C1505.25 812.682 1505.17 803.483 1505 796C1506.84 801.058 1506.63 810.696 1505.16 822.68C1504.81 860.56 1501.99 909.924 1492.5 921H1483Z" fill="#2A3024"/>
<path d="M1439.5 872C1441.5 894.4 1459.33 914 1468 921H1455C1442.2 917.4 1439.33 886.833 1439.5 872Z" fill="#2A3024"/>
<path d="M1431 782.5C1462 823.576 1450 879.5 1447.5 920L1450.5 915C1470.37 855.5 1458 816 1431 782.5Z" fill="#2A3024"/>
<path d="M1483 921C1490.13 896.533 1501.52 852.397 1505.16 822.68C1505.25 812.682 1505.17 803.483 1505 796C1506.84 801.058 1506.63 810.696 1505.16 822.68C1504.81 860.56 1501.99 909.924 1492.5 921H1483Z" fill="#2A3024"/>
<path d="M1439.5 872C1441.5 894.4 1459.33 914 1468 921H1455C1442.2 917.4 1439.33 886.833 1439.5 872Z" fill="#2A3024"/>
<path d="M1688.5 920C1684.83 907.332 1677.44 884.909 1670.32 870.831C1662.59 861.544 1656.93 855.542 1662 859C1664.55 860.738 1667.41 865.091 1670.32 870.831C1679.35 881.686 1691.19 897.03 1692 907V862.5C1695 874.834 1700.5 901 1698.5 907C1701.67 902.834 1709.7 895.1 1716.5 897.5C1712.17 897 1703 900.8 1701 920H1688.5Z" fill="#2A3024"/>
<path d="M1760.28 929.5C1755.59 906.612 1746.17 866.098 1737.08 840.663C1727.22 823.884 1719.99 813.04 1726.46 819.288C1729.72 822.428 1733.37 830.292 1737.08 840.663C1748.6 860.276 1763.71 887.998 1764.74 906.012V825.612C1768.57 847.895 1775.59 895.172 1773.03 906.012C1777.07 898.484 1787.32 884.512 1796 888.848C1790.47 887.945 1778.78 894.81 1776.22 929.5H1760.28Z" fill="#2A3024"/>
<path d="M1406 789.5C1354.12 830.725 1374.2 886.853 1378.38 927.5L1373.36 922.482C1340.11 862.765 1360.81 823.122 1406 789.5Z" fill="#2A3024"/>
<path d="M936.293 1047.5C925.203 978.798 907.475 854.862 901.805 771.418C901.662 743.342 901.785 717.513 902.056 696.5C899.194 710.702 899.519 737.768 901.805 771.418C902.35 877.785 906.734 1016.4 921.509 1047.5H936.293Z" fill="#0F1B05"/>
<path d="M1003.99 909.908C1000.88 972.807 973.124 1027.84 959.637 1047.5H979.868C999.788 1037.39 1004.25 951.56 1003.99 909.908Z" fill="#0F1B05"/>
<path d="M1574.03 921.5H1559.39C1562.36 916.196 1568.18 902.584 1567.67 890.562C1567.03 875.536 1557.48 873.768 1549.21 864.929C1542.59 857.857 1547.72 833.696 1551.12 822.5C1544.75 860.509 1569.58 868.464 1574.03 876.42C1577.6 882.784 1575.52 909.125 1574.03 921.5Z" fill="#2A3024"/>
<path d="M1009.36 1040.5C1003.25 987.98 990.941 895.015 979.071 836.65C966.204 798.149 956.77 773.266 965.218 787.603C969.464 794.808 974.231 812.853 979.071 836.65C994.111 881.655 1013.84 945.268 1015.19 986.604V802.113C1020.19 853.245 1029.35 961.729 1026.02 986.604C1031.29 969.329 1044.67 937.268 1056 947.218C1048.78 945.145 1033.51 960.9 1030.18 1040.5H1009.36Z" fill="#17240C"/>
<path d="M954.331 1025.5C967.981 986.745 989.8 916.832 996.778 869.762C996.955 853.924 996.803 839.353 996.469 827.5C999.992 835.512 999.592 850.779 996.778 869.762C996.108 929.763 990.712 1007.96 972.527 1025.5H954.331Z" fill="#17240C"/>
<path d="M871.013 947.884C874.844 983.366 909.001 1014.41 925.601 1025.5H900.701C876.184 1019.8 870.694 971.38 871.013 947.884Z" fill="#17240C"/>
<path d="M861.138 1048.5C880.652 979.993 911.847 856.411 921.823 773.205C922.076 745.209 921.858 719.453 921.382 698.5C926.418 712.662 925.846 739.65 921.823 773.205C920.865 879.269 913.15 1017.49 887.152 1048.5H861.138Z" fill="#0F1B05"/>
<path d="M742.018 911.3C747.495 974.02 796.329 1028.9 820.062 1048.5H784.463C749.412 1038.42 741.562 952.833 742.018 911.3Z" fill="#0F1B05"/>
<path d="M1081.7 1047.5C1069.74 994.776 1045.65 901.448 1022.42 842.857C997.228 804.206 978.762 779.227 995.299 793.619C1003.61 800.852 1012.94 818.967 1022.42 842.857C1051.86 888.037 1090.48 951.898 1093.12 993.394V808.186C1102.9 859.517 1120.83 968.422 1114.31 993.394C1124.63 976.052 1150.83 943.866 1173 953.855C1158.87 951.774 1128.98 967.59 1122.46 1047.5H1081.7Z" fill="#17240C"/>
<path d="M894.962 1044.5C906.585 975.798 925.166 851.862 931.108 768.418C931.258 740.342 931.129 714.513 930.845 693.5C933.845 707.702 933.504 734.768 931.108 768.418C930.537 874.785 925.942 1013.4 910.457 1044.5H894.962Z" fill="#0F1B05"/>
<path d="M824.011 906.908C827.273 969.807 856.36 1024.84 870.496 1044.5H849.292C828.415 1034.39 823.739 948.56 824.011 906.908Z" fill="#0F1B05"/>
<path d="M-3.03824 965.5C8.585 896.798 27.1659 772.862 33.1078 689.418C33.2585 661.342 33.1288 635.513 32.8449 614.5C35.8448 628.702 35.504 655.768 33.1078 689.418C32.5371 795.785 27.942 934.398 12.4568 965.5H-3.03824Z" fill="#17240C"/>
<path d="M-73.989 827.908C-70.7269 890.807 -41.6398 945.844 -27.504 965.5H-48.7077C-69.5852 955.391 -74.2609 869.56 -73.989 827.908Z" fill="#17240C"/>
<path d="M1018 818.5C920.092 912.123 912 948.454 912 1029.5H928.183C936.275 912.123 974.305 879.983 1018 818.5Z" fill="#17240C"/>
<path d="M1207.86 1048.5C1201.81 995.98 1189.63 903.015 1177.89 844.65C1165.16 806.149 1155.83 781.266 1164.18 795.603C1168.38 802.808 1173.1 820.853 1177.89 844.65C1192.77 889.655 1212.29 953.268 1213.62 994.604V810.113C1218.57 861.245 1227.63 969.729 1224.34 994.604C1229.55 977.329 1242.79 945.268 1254 955.218C1246.86 953.145 1231.75 968.9 1228.46 1048.5H1207.86Z" fill="#17240C"/>
<path d="M1520.78 1020.5C1524.55 1007.83 1532.14 985.402 1539.47 971.322C1547.41 962.034 1553.23 956.031 1548.01 959.49C1545.39 961.228 1542.45 965.581 1539.47 971.322C1530.19 982.179 1518.01 997.526 1517.18 1007.5V962.99C1514.1 975.326 1508.44 1001.5 1510.5 1007.5C1507.25 1003.33 1498.99 995.596 1492 997.996C1496.45 997.496 1505.88 1001.3 1507.93 1020.5H1520.78Z" fill="#454F3D"/>
<path d="M1446.21 1029.5C1451.09 1006.61 1460.91 966.098 1470.38 940.663C1480.65 923.884 1488.17 913.04 1481.43 919.288C1478.05 922.428 1474.24 930.292 1470.38 940.663C1458.38 960.276 1442.64 987.998 1441.56 1006.01V925.612C1437.57 947.895 1430.26 995.172 1432.92 1006.01C1428.71 998.484 1418.04 984.512 1409 988.848C1414.76 987.945 1426.94 994.81 1429.6 1029.5H1446.21Z" fill="#454F3D"/>
<path d="M1200.96 1143.5C1212.58 1074.8 1231.17 950.862 1237.11 867.418C1237.26 839.342 1237.13 813.513 1236.84 792.5C1239.84 806.702 1239.5 833.768 1237.11 867.418C1236.54 973.785 1231.94 1112.4 1216.46 1143.5H1200.96Z" fill="#454F3D"/>
<path d="M1130.01 1005.91C1133.27 1068.81 1162.36 1123.84 1176.5 1143.5H1155.29C1134.41 1133.39 1129.74 1047.56 1130.01 1005.91Z" fill="#454F3D"/>
<path d="M1727.66 978.5C1733.39 945.19 1744.91 886.227 1756.02 849.21C1768.06 824.791 1776.9 809.009 1768.99 818.102C1765.01 822.672 1760.55 834.117 1756.02 849.21C1741.94 877.754 1723.47 918.1 1722.21 944.317V827.305C1717.53 859.735 1708.95 928.54 1712.07 944.317C1707.13 933.361 1694.6 913.026 1684 919.337C1690.76 918.022 1705.05 928.014 1708.17 978.5H1727.66Z" fill="#454F3D"/>
<path d="M1520.33 1021.5C1531.77 988.19 1554.81 929.227 1577.04 892.21C1601.13 867.791 1618.79 852.009 1602.98 861.102C1595.03 865.672 1586.1 877.117 1577.04 892.21C1548.88 920.754 1511.93 961.1 1509.41 987.317V870.305C1500.05 902.735 1482.9 971.54 1489.14 987.317C1479.26 976.361 1454.21 956.026 1433 962.337C1446.51 961.022 1475.1 971.014 1481.34 1021.5H1520.33Z" fill="#454F3D"/>
<path d="M1720 837.5C1813.29 896.957 1821 920.03 1821 971.5H1805.58C1797.87 896.957 1761.63 876.546 1720 837.5Z" fill="#454F3D"/>
<path d="M1401.16 1022.5C1406.95 989.19 1418.6 930.227 1429.84 893.21C1442.02 868.791 1450.95 853.009 1442.95 862.102C1438.93 866.672 1434.42 878.117 1429.84 893.21C1415.6 921.754 1396.91 962.1 1395.64 988.317V871.305C1390.91 903.735 1382.23 972.54 1385.39 988.317C1380.39 977.361 1367.72 957.026 1357 963.337C1363.83 962.022 1378.29 972.014 1381.45 1022.5H1401.16Z" fill="#454F3D"/>
<path d="M565 858.5C475.405 955.228 468 992.765 468 1076.5H482.809C490.214 955.228 525.015 922.023 565 858.5Z" fill="#10170B"/>
<path d="M552 847.5C519.177 914.118 531.882 1004.82 534.529 1070.5L531.353 1062.39C510.316 965.893 523.412 901.831 552 847.5Z" fill="#10170B"/>
<path d="M497.079 1071.5C489.721 1031.77 477.959 960.088 474.198 911.829C474.102 895.591 474.185 880.653 474.364 868.5C472.465 876.714 472.681 892.367 474.198 911.829C474.559 973.346 477.468 1053.51 487.27 1071.5H497.079Z" fill="#10170B"/>
<path d="M541.993 991.924C539.928 1028.3 521.515 1060.13 512.567 1071.5H525.989C539.205 1065.65 542.165 1016.01 541.993 991.924Z" fill="#10170B"/>
<path d="M552 847.5C519.177 914.118 531.882 1004.82 534.529 1070.5L531.353 1062.39C510.316 965.893 523.412 901.831 552 847.5Z" fill="#10170B"/>
<path d="M497.079 1071.5C489.721 1031.77 477.959 960.088 474.198 911.829C474.102 895.591 474.185 880.653 474.364 868.5C472.465 876.714 472.681 892.367 474.198 911.829C474.559 973.346 477.468 1053.51 487.27 1071.5H497.079Z" fill="#10170B"/>
<path d="M541.993 991.924C539.928 1028.3 521.515 1060.13 512.567 1071.5H525.989C539.205 1065.65 542.165 1016.01 541.993 991.924Z" fill="#10170B"/>
<path d="M30 900.5C61 941.576 49.0003 997.5 46.5003 1038L49.5 1033C69.3686 973.5 57 934 30 900.5Z" fill="#2A3024"/>
<path d="M94.4999 1037.5H82.9999C85.3333 1034.5 89.9 1026.8 89.5 1020C89 1011.5 81.4999 1010.5 74.9999 1005.5C69.7999 1001.5 73.8332 987.833 76.4999 981.5C71.4999 1003 90.9999 1007.5 94.4999 1012C97.2999 1015.6 95.6666 1030.5 94.4999 1037.5Z" fill="#2A3024"/>
<path d="M81.9999 1039C89.1261 1014.53 100.518 970.397 104.161 940.68C104.253 930.682 104.174 921.483 104 914C105.839 919.058 105.63 928.696 104.161 940.68C103.811 978.56 100.994 1027.92 91.4999 1039H81.9999Z" fill="#2A3024"/>
<path d="M38.4999 990C40.4999 1012.4 58.3332 1032 66.9999 1039H53.9999C41.1999 1035.4 38.3332 1004.83 38.4999 990Z" fill="#2A3024"/>
<path d="M30 900.5C61 941.576 49.0003 997.5 46.5003 1038L49.5 1033C69.3686 973.5 57 934 30 900.5Z" fill="#2A3024"/>
<path d="M81.9999 1039C89.1261 1014.53 100.518 970.397 104.161 940.68C104.253 930.682 104.174 921.483 104 914C105.839 919.058 105.63 928.696 104.161 940.68C103.811 978.56 100.994 1027.92 91.4999 1039H81.9999Z" fill="#2A3024"/>
<path d="M38.4999 990C40.4999 1012.4 58.3332 1032 66.9999 1039H53.9999C41.1999 1035.4 38.3332 1004.83 38.4999 990Z" fill="#2A3024"/>
<path d="M438 904.5C469 945.576 457 1001.5 454.5 1042L457.5 1037C477.369 977.5 465 938 438 904.5Z" fill="#2A3024"/>
<path d="M598.507 1039.5C605.633 1015.03 617.025 970.897 620.668 941.18C620.76 931.182 620.681 921.983 620.507 914.5C622.346 919.558 622.137 929.196 620.668 941.18C620.318 979.06 617.501 1028.42 608.007 1039.5H598.507Z" fill="#2A3024"/>
<path d="M555.007 990.5C557.007 1012.9 574.84 1032.5 583.507 1039.5H570.507C557.707 1035.9 554.84 1005.33 555.007 990.5Z" fill="#2A3024"/>
<path d="M882.77 1039.5H866.179C869.545 1034.2 876.133 1020.58 875.556 1008.56C874.835 993.536 864.015 991.768 854.638 982.929C847.136 975.857 852.954 951.696 856.802 940.5C849.588 978.509 877.72 986.464 882.77 994.42C886.809 1000.78 884.453 1027.12 882.77 1039.5Z" fill="#2A3024"/>
<path d="M864.498 1042.5C874.735 999.047 891.1 920.661 896.334 867.884C896.466 850.127 896.352 833.79 896.102 820.5C898.744 829.483 898.444 846.601 896.334 867.884C895.831 935.159 891.784 1022.83 878.145 1042.5H864.498Z" fill="#2A3024"/>
<path d="M802.01 955.476C804.883 995.258 830.501 1030.07 842.951 1042.5H824.276C805.888 1036.11 801.77 981.82 802.01 955.476Z" fill="#2A3024"/>
<path d="M1279.89 1052.5C1273.81 1009.05 1264.1 930.661 1260.99 877.884C1260.91 860.127 1260.98 843.79 1261.13 830.5C1259.56 839.483 1259.74 856.601 1260.99 877.884C1261.29 945.159 1263.69 1032.83 1271.79 1052.5H1279.89Z" fill="#2A3024"/>
<path d="M1316.99 965.476C1315.29 1005.26 1300.08 1040.07 1292.69 1052.5H1303.77C1314.69 1046.11 1317.14 991.82 1316.99 965.476Z" fill="#2A3024"/>
<path d="M1214 909.5C1266.65 968.957 1271 992.03 1271 1043.5H1262.3C1257.95 968.957 1237.5 948.546 1214 909.5Z" fill="#2A3024"/>
<path d="M1180.76 1044.5H1164.17C1167.54 1039.2 1174.13 1025.58 1173.55 1013.56C1172.83 998.536 1162.01 996.768 1152.63 987.929C1145.13 980.857 1150.95 956.696 1154.79 945.5C1147.58 983.509 1175.71 991.464 1180.76 999.42C1184.8 1005.78 1182.45 1032.12 1180.76 1044.5Z" fill="#2A3024"/>
<path d="M1696.5 1040.5C1706.74 997.047 1723.1 918.661 1728.33 865.884C1728.47 848.127 1728.35 831.79 1728.1 818.5C1730.74 827.483 1730.44 844.601 1728.33 865.884C1727.83 933.159 1723.78 1020.83 1710.15 1040.5H1696.5Z" fill="#2A3024"/>
<path d="M1634.01 953.476C1636.88 993.258 1662.5 1028.07 1674.95 1040.5H1656.28C1637.89 1034.11 1633.77 979.82 1634.01 953.476Z" fill="#2A3024"/>
<path d="M287.5 1038C283.83 1025.33 276.443 1002.91 269.317 988.831C261.592 979.544 255.928 973.542 261 977C263.549 978.738 266.411 983.091 269.317 988.831C278.346 999.686 290.192 1015.03 291 1025V980.5C294 992.834 299.5 1019 297.5 1025C300.667 1020.83 308.7 1013.1 315.5 1015.5C311.167 1015 302 1018.8 300 1038H287.5Z" fill="#2A3024"/>
<path d="M359.275 1047.5C354.593 1024.61 345.167 984.098 336.075 958.663C326.22 941.884 318.994 931.04 325.465 937.288C328.717 940.428 332.368 948.292 336.075 958.663C347.596 978.276 362.71 1006 363.741 1024.01V943.612C367.569 965.895 374.586 1013.17 372.034 1024.01C376.075 1016.48 386.324 1002.51 395 1006.85C389.471 1005.94 377.776 1012.81 375.224 1047.5H359.275Z" fill="#2A3024"/>
<path d="M1042.86 1036.5C1036.56 1003.19 1023.86 944.227 1011.61 907.21C998.331 882.791 988.596 867.009 997.314 876.102C1001.69 880.672 1006.61 892.117 1011.61 907.21C1027.13 935.754 1047.49 976.1 1048.88 1002.32V885.305C1054.04 917.735 1063.49 986.54 1060.05 1002.32C1065.5 991.361 1079.3 971.026 1090.99 977.337C1083.54 976.022 1067.79 986.014 1064.35 1036.5H1042.86Z" fill="#2A3024"/>
<path d="M1677.97 1040.5H1692.61C1689.64 1035.2 1683.82 1021.58 1684.33 1009.56C1684.97 994.536 1694.52 992.768 1702.79 983.929C1709.41 976.857 1704.28 952.696 1700.88 941.5C1707.25 979.509 1682.42 987.464 1677.97 995.42C1674.4 1001.78 1676.48 1028.12 1677.97 1040.5Z" fill="#2A3024"/>
<path d="M791 921.5C738.351 973.414 734 993.56 734 1038.5H742.702C747.053 973.414 767.504 955.593 791 921.5Z" fill="#2A3024"/>
<path d="M563.498 1044.5C573.735 1001.05 590.1 922.661 595.334 869.884C595.466 852.127 595.352 835.79 595.102 822.5C597.744 831.483 597.444 848.601 595.334 869.884C594.831 937.159 590.784 1024.83 577.145 1044.5H563.498Z" fill="#2A3024"/>
<path d="M501.01 957.476C503.883 997.258 529.501 1032.07 541.951 1044.5H523.276C504.888 1038.11 500.77 983.82 501.01 957.476Z" fill="#2A3024"/>
<path d="M666.871 1047.5C660.562 1014.19 647.864 955.227 635.616 918.21C622.338 893.791 612.603 878.009 621.321 887.102C625.702 891.672 630.621 903.117 635.616 918.21C651.136 946.754 671.498 987.1 672.887 1013.32V896.305C678.044 928.735 687.498 997.54 684.06 1013.32C689.503 1002.36 703.312 982.026 715 988.337C707.551 987.022 691.795 997.014 688.357 1047.5H666.871Z" fill="#2A3024"/>
<path d="M1699 961.5C1758.11 994.778 1763 1007.69 1763 1036.5H1753.23C1748.34 994.778 1725.38 983.354 1699 961.5Z" fill="#2A3024"/>
<path d="M5 907.5C-46.8818 948.725 -26.7991 1004.85 -22.615 1045.5L-27.6353 1040.48C-60.8875 980.765 -40.1874 941.122 5 907.5Z" fill="#2A3024"/>
<path d="M1241.03 1038.5C1233.99 1014.03 1222.74 969.897 1219.15 940.18C1219.05 930.182 1219.13 920.983 1219.3 913.5C1217.49 918.558 1217.69 928.196 1219.15 940.18C1219.49 978.06 1222.27 1027.42 1231.65 1038.5H1241.03Z" fill="#2A3024"/>
<path d="M1283.99 989.5C1282.02 1011.9 1264.41 1031.5 1255.85 1038.5H1268.69C1281.33 1034.9 1284.16 1004.33 1283.99 989.5Z" fill="#2A3024"/>
<path d="M901 904.5C987.824 963.957 995 987.03 995 1038.5H980.649C973.473 963.957 939.748 943.546 901 904.5Z" fill="#2A3024"/>
<path d="M959.23 1038.5H975.821C972.455 1033.2 965.867 1019.58 966.444 1007.56C967.165 992.536 977.985 990.768 987.362 981.929C994.864 974.857 989.046 950.696 985.198 939.5C992.412 977.509 964.28 985.464 959.23 993.42C955.191 999.784 957.547 1026.12 959.23 1038.5Z" fill="#2A3024"/>
<path d="M978.153 1041.5C968.022 998.047 951.828 919.661 946.649 866.884C946.518 849.127 946.631 832.79 946.878 819.5C944.264 828.483 944.561 845.601 946.649 866.884C947.147 934.159 951.151 1021.83 964.648 1041.5H978.153Z" fill="#2A3024"/>
<path d="M1039.99 954.476C1037.15 994.258 1011.8 1029.07 999.476 1041.5H1017.96C1036.15 1035.11 1040.23 980.82 1039.99 954.476Z" fill="#2A3024"/>
<path d="M567.108 1051.5C573.187 1008.05 582.903 929.661 586.011 876.884C586.089 859.127 586.021 842.79 585.873 829.5C587.442 838.483 587.264 855.601 586.011 876.884C585.712 944.159 583.309 1031.83 575.211 1051.5H567.108Z" fill="#2A3024"/>
<path d="M530.006 964.476C531.712 1004.26 546.922 1039.07 554.314 1051.5H543.226C532.309 1045.11 529.864 990.82 530.006 964.476Z" fill="#2A3024"/>
<path d="M632 908.5C580.275 967.957 576 991.03 576 1042.5H584.55C588.824 967.957 608.916 947.546 632 908.5Z" fill="#2A3024"/>
<path d="M665.165 1043.5H681.268C678 1038.2 671.606 1024.58 672.166 1012.56C672.866 997.536 683.368 995.768 692.469 986.929C699.751 979.857 694.103 955.696 690.369 944.5C697.37 982.509 670.066 990.464 665.165 998.42C661.244 1004.78 663.531 1031.12 665.165 1043.5Z" fill="#2A3024"/>
<path d="M155.153 1039.5C145.022 996.047 128.828 917.661 123.649 864.884C123.518 847.127 123.631 830.79 123.878 817.5C121.264 826.483 121.561 843.601 123.649 864.884C124.147 932.159 128.151 1019.83 141.648 1039.5H155.153Z" fill="#2A3024"/>
<path d="M216.99 952.476C214.147 992.258 188.796 1027.07 176.476 1039.5H194.956C213.152 1033.11 217.227 978.82 216.99 952.476Z" fill="#2A3024"/>
<path d="M1548.29 1037.5C1551.87 1024.83 1559.07 1002.4 1566.01 988.322C1573.54 979.034 1579.06 973.031 1574.12 976.49C1571.63 978.228 1568.84 982.581 1566.01 988.322C1557.21 999.179 1545.67 1014.53 1544.88 1024.5V979.99C1541.95 992.326 1536.59 1018.5 1538.54 1024.5C1535.46 1020.33 1527.63 1012.6 1521 1015C1525.22 1014.5 1534.16 1018.3 1536.11 1037.5H1548.29Z" fill="#2A3024"/>
<path d="M1311.23 980.5C1315.85 957.612 1325.14 917.098 1334.11 891.663C1343.82 874.884 1350.95 864.04 1344.57 870.288C1341.36 873.428 1337.76 881.292 1334.11 891.663C1322.75 911.276 1307.84 938.998 1306.82 957.012V876.612C1303.05 898.895 1296.13 946.172 1298.65 957.012C1294.66 949.484 1284.56 935.512 1276 939.848C1281.45 938.945 1292.99 945.81 1295.5 980.5H1311.23Z" fill="#2A3422"/>
<path d="M801.633 1035.5C807.876 1002.19 820.444 943.227 832.566 906.21C845.707 881.791 855.341 866.009 846.714 875.102C842.378 879.672 837.509 891.117 832.566 906.21C817.205 934.754 797.054 975.1 795.679 1001.32V884.305C790.575 916.735 781.219 985.54 784.621 1001.32C779.234 990.361 765.568 970.026 754 976.337C761.372 975.022 776.966 985.014 780.368 1035.5H801.633Z" fill="#2A3024"/>
<path d="M173.032 1039.5H158.393C161.363 1034.2 167.177 1020.58 166.667 1008.56C166.031 993.536 156.484 991.768 148.21 982.929C141.59 975.857 146.724 951.696 150.119 940.5C143.754 978.509 168.577 986.464 173.032 994.42C176.596 1000.78 174.517 1027.12 173.032 1039.5Z" fill="#2A3024"/>
<path d="M221.825 1035.5C216.297 1002.19 205.17 943.227 194.436 906.21C182.801 881.791 174.271 866.009 181.91 875.102C185.749 879.672 190.06 891.117 194.436 906.21C208.037 934.754 225.879 975.1 227.097 1001.32V884.305C231.616 916.735 239.9 985.54 236.888 1001.32C241.657 990.361 253.758 970.026 264 976.337C257.473 975.022 243.666 985.014 240.653 1035.5H221.825Z" fill="#2A3024"/>
<path d="M914 897.5C945 938.576 933 994.5 930.5 1035L933.5 1030C953.369 970.5 941 931 914 897.5Z" fill="#2A3024"/>
<path d="M1019.5 959C959 992.5 954 1005.5 954 1034.5H964C969 992.5 992.5 981 1019.5 959Z" fill="#2A3024"/>
<path d="M652.021 1047.5H640.521C642.855 1044.5 647.421 1036.8 647.021 1030C646.521 1021.5 639.021 1020.5 632.521 1015.5C627.321 1011.5 631.355 997.833 634.021 991.5C629.021 1013 648.521 1017.5 652.021 1022C654.821 1025.6 653.188 1040.5 652.021 1047.5Z" fill="#2A3024"/>
<path d="M966 1036C973.126 1011.53 984.518 967.397 988.161 937.68C988.253 927.682 988.174 918.483 988 911C989.839 916.058 989.63 925.696 988.161 937.68C987.811 975.56 984.994 1024.92 975.5 1036H966Z" fill="#2A3024"/>
<path d="M922.5 987C924.5 1009.4 942.333 1029 951 1036H938C925.2 1032.4 922.333 1001.83 922.5 987Z" fill="#2A3024"/>
<path d="M914 897.5C945 938.576 933 994.5 930.5 1035L933.5 1030C953.369 970.5 941 931 914 897.5Z" fill="#2A3024"/>
<path d="M966 1036C973.126 1011.53 984.518 967.397 988.161 937.68C988.253 927.682 988.174 918.483 988 911C989.839 916.058 989.63 925.696 988.161 937.68C987.811 975.56 984.994 1024.92 975.5 1036H966Z" fill="#2A3024"/>
<path d="M922.5 987C924.5 1009.4 942.333 1029 951 1036H938C925.2 1032.4 922.333 1001.83 922.5 987Z" fill="#2A3024"/>
<path d="M1322 901.5C1353 942.576 1341 998.5 1338.5 1039L1341.5 1034C1361.37 974.5 1349 935 1322 901.5Z" fill="#2A3024"/>
<path d="M171.519 1025.5C183.889 1001.03 203.663 956.897 209.986 927.18C210.147 917.182 210.009 907.983 209.707 900.5C212.899 905.558 212.536 915.197 209.986 927.18C209.379 965.06 204.489 1014.42 188.009 1025.5H171.519Z" fill="#2A3024"/>
<path d="M96.0117 976.5C99.4833 998.9 130.438 1018.5 145.482 1025.5H122.917C100.698 1021.9 95.7224 991.333 96.0117 976.5Z" fill="#2A3024"/>
<path d="M1748.5 1039.5C1758.74 996.047 1775.1 917.661 1780.33 864.884C1780.47 847.127 1780.35 830.79 1780.1 817.5C1782.74 826.483 1782.44 843.601 1780.33 864.884C1779.83 932.159 1775.78 1019.83 1762.15 1039.5H1748.5Z" fill="#2A3024"/>
<path d="M1686.01 952.476C1688.88 992.258 1714.5 1027.07 1726.95 1039.5H1708.28C1689.89 1033.11 1685.77 978.82 1686.01 952.476Z" fill="#2A3024"/>
<path d="M1171.5 1035C1167.83 1022.33 1160.44 999.909 1153.32 985.831C1145.59 976.544 1139.93 970.542 1145 974C1147.55 975.738 1150.41 980.091 1153.32 985.831C1162.35 996.686 1174.19 1012.03 1175 1022V977.5C1178 989.834 1183.5 1016 1181.5 1022C1184.67 1017.83 1192.7 1010.1 1199.5 1012.5C1195.17 1012 1186 1015.8 1184 1035H1171.5Z" fill="#2A3024"/>
<path d="M1675 918.5C1622.35 970.414 1618 990.56 1618 1035.5H1626.7C1631.05 970.414 1651.5 952.593 1675 918.5Z" fill="#2A3024"/>
<path d="M86.7212 1040.5C104.529 997.047 132.997 918.661 142.101 865.884C142.332 848.127 142.133 831.79 141.698 818.5C146.294 827.483 145.772 844.601 142.101 865.884C141.227 933.159 134.186 1020.83 110.461 1040.5H86.7212Z" fill="#2A3024"/>
<path d="M-21.9832 953.476C-16.9853 993.258 27.5794 1028.07 49.237 1040.5H16.7506C-15.236 1034.11 -22.3997 979.82 -21.9832 953.476Z" fill="#2A3024"/>
<path d="M287.643 1039.5C276.716 1006.19 254.724 947.227 233.509 910.21C210.513 885.791 193.652 870.009 208.751 879.102C216.339 883.672 224.86 895.117 233.509 910.21C260.39 938.754 295.656 979.1 298.062 1005.32V888.305C306.993 920.735 323.367 989.54 317.413 1005.32C326.841 994.361 350.756 974.026 371 980.337C358.099 979.022 330.81 989.014 324.856 1039.5H287.643Z" fill="#2A3024"/>
<path d="M117.452 1037.5C128.008 994.047 144.885 915.661 150.281 862.884C150.418 845.127 150.3 828.79 150.043 815.5C152.767 824.483 152.458 841.601 150.281 862.884C149.763 930.159 145.59 1017.83 131.525 1037.5H117.452Z" fill="#2A3024"/>
<path d="M53.01 950.476C55.9728 990.258 82.3914 1025.07 95.2303 1037.5H75.9719C57.0098 1031.11 52.7631 976.82 53.01 950.476Z" fill="#2A3024"/>
<path d="M230 894.5C140.405 953.957 133 977.03 133 1028.5H147.809C155.214 953.957 190.015 933.546 230 894.5Z" fill="#2A3024"/>
<path d="M1549.16 1040.5H1565.27C1562 1035.2 1555.61 1021.58 1556.17 1009.56C1556.87 994.536 1567.37 992.768 1576.47 983.929C1583.75 976.857 1578.1 952.696 1574.37 941.5C1581.37 979.509 1554.07 987.464 1549.16 995.42C1545.24 1001.78 1547.53 1028.12 1549.16 1040.5Z" fill="#2A3024"/>
<path d="M1039.15 1036.5C1029.02 993.047 1012.83 914.661 1007.65 861.884C1007.52 844.127 1007.63 827.79 1007.88 814.5C1005.26 823.483 1005.56 840.601 1007.65 861.884C1008.15 929.159 1012.15 1016.83 1025.65 1036.5H1039.15Z" fill="#2A3024"/>
<path d="M1100.99 949.476C1098.15 989.258 1072.8 1024.07 1060.48 1036.5H1078.96C1097.15 1030.11 1101.23 975.82 1100.99 949.476Z" fill="#2A3024"/>
<path d="M1685.63 1032.5C1691.88 999.19 1704.44 940.227 1716.57 903.21C1729.71 878.791 1739.34 863.009 1730.71 872.102C1726.38 876.672 1721.51 888.117 1716.57 903.21C1701.21 931.754 1681.05 972.1 1679.68 998.317V881.305C1674.58 913.735 1665.22 982.54 1668.62 998.317C1663.23 987.361 1649.57 967.026 1638 973.337C1645.37 972.022 1660.97 982.014 1664.37 1032.5H1685.63Z" fill="#2A3024"/>
<path d="M1057.03 1036.5H1042.39C1045.36 1031.2 1051.18 1017.58 1050.67 1005.56C1050.03 990.536 1040.48 988.768 1032.21 979.929C1025.59 972.857 1030.72 948.696 1034.12 937.5C1027.75 975.509 1052.58 983.464 1057.03 991.42C1060.6 997.784 1058.52 1024.12 1057.03 1036.5Z" fill="#2A3024"/>
<path d="M402.825 1040.5C397.297 1007.19 386.17 948.227 375.436 911.21C363.801 886.791 355.271 871.009 362.91 880.102C366.749 884.672 371.06 896.117 375.436 911.21C389.037 939.754 406.879 980.1 408.097 1006.32V889.305C412.616 921.735 420.9 990.54 417.888 1006.32C422.657 995.361 434.758 975.026 445 981.337C438.473 980.022 424.666 990.014 421.653 1040.5H402.825Z" fill="#2A3024"/>
<path d="M1465.5 1038C1461.83 1025.33 1454.44 1002.91 1447.32 988.831C1439.59 979.544 1433.93 973.542 1439 977C1441.55 978.738 1444.41 983.091 1447.32 988.831C1456.35 999.686 1468.19 1015.03 1469 1025V980.5C1472 992.834 1477.5 1019 1475.5 1025C1478.67 1020.83 1486.7 1013.1 1493.5 1015.5C1489.17 1015 1480 1018.8 1478 1038H1465.5Z" fill="#2A3024"/>
<path d="M1537.28 1047.5C1532.59 1024.61 1523.17 984.098 1514.08 958.663C1504.22 941.884 1496.99 931.04 1503.46 937.288C1506.72 940.428 1510.37 948.292 1514.08 958.663C1525.6 978.276 1540.71 1006 1541.74 1024.01V943.612C1545.57 965.895 1552.59 1013.17 1550.03 1024.01C1554.07 1016.48 1564.32 1002.51 1573 1006.85C1567.47 1005.94 1555.78 1012.81 1553.22 1047.5H1537.28Z" fill="#2A3024"/>
<path d="M1399.83 1035.5C1394.3 1002.19 1383.17 943.227 1372.44 906.21C1360.8 881.791 1352.27 866.009 1359.91 875.102C1363.75 879.672 1368.06 891.117 1372.44 906.21C1386.04 934.754 1403.88 975.1 1405.1 1001.32V884.305C1409.62 916.735 1417.9 985.54 1414.89 1001.32C1419.66 990.361 1431.76 970.026 1442 976.337C1435.47 975.022 1421.67 985.014 1418.65 1035.5H1399.83Z" fill="#2A3024"/>
<path d="M1465.64 1039.5C1454.72 1006.19 1432.72 947.227 1411.51 910.21C1388.51 885.791 1371.65 870.009 1386.75 879.102C1394.34 883.672 1402.86 895.117 1411.51 910.21C1438.39 938.754 1473.66 979.1 1476.06 1005.32V888.305C1484.99 920.735 1501.37 989.54 1495.41 1005.32C1504.84 994.361 1528.76 974.026 1549 980.337C1536.1 979.022 1508.81 989.014 1502.86 1039.5H1465.64Z" fill="#2A3024"/>
<path d="M1580.83 1040.5C1575.3 1007.19 1564.17 948.227 1553.44 911.21C1541.8 886.791 1533.27 871.009 1540.91 880.102C1544.75 884.672 1549.06 896.117 1553.44 911.21C1567.04 939.754 1584.88 980.1 1586.1 1006.32V889.305C1590.62 921.735 1598.9 990.54 1595.89 1006.32C1600.66 995.361 1612.76 975.026 1623 981.337C1616.47 980.022 1602.67 990.014 1599.65 1040.5H1580.83Z" fill="#2A3024"/>
<path d="M1050 920.5C1102.65 972.414 1107 992.56 1107 1037.5H1098.3C1093.95 972.414 1073.5 954.593 1050 920.5Z" fill="#2A3024"/>
<path d="M1275.15 1043.5C1265.02 1000.05 1248.83 921.661 1243.65 868.884C1243.52 851.127 1243.63 834.79 1243.88 821.5C1241.26 830.483 1241.56 847.601 1243.65 868.884C1244.15 936.159 1248.15 1023.83 1261.65 1043.5H1275.15Z" fill="#2A3024"/>
<path d="M1336.99 956.476C1334.15 996.258 1308.8 1031.07 1296.48 1043.5H1314.96C1333.15 1037.11 1337.23 982.82 1336.99 956.476Z" fill="#2A3024"/>
<path d="M1173.14 1046.5C1179.32 1013.19 1191.75 954.227 1203.75 917.21C1216.75 892.791 1226.29 877.009 1217.75 886.102C1213.46 890.672 1208.64 902.117 1203.75 917.21C1188.55 945.754 1168.61 986.1 1167.24 1012.32V895.305C1162.19 927.735 1152.94 996.54 1156.3 1012.32C1150.97 1001.36 1137.45 981.026 1126 987.337C1133.29 986.022 1148.73 996.014 1152.09 1046.5H1173.14Z" fill="#2A3024"/>
<path d="M527 961.5C494.177 1002.43 506.882 1058.15 509.529 1098.5L506.353 1093.52C485.316 1034.23 498.412 994.878 527 961.5Z" fill="#454F3D"/>
<path d="M459.64 1098.5H471.839C469.364 1095.5 464.52 1087.8 464.944 1081C465.474 1072.5 473.43 1071.5 480.325 1066.5C485.841 1062.5 481.563 1048.83 478.734 1042.5C484.038 1064 463.353 1068.5 459.64 1073C456.67 1076.6 458.402 1091.5 459.64 1098.5Z" fill="#454F3D"/>
<path d="M472.428 1099.5C464.964 1075.03 453.031 1030.9 449.215 1001.18C449.118 991.182 449.202 981.983 449.384 974.5C447.457 979.558 447.676 989.196 449.215 1001.18C449.582 1039.06 452.533 1088.42 462.477 1099.5H472.428Z" fill="#454F3D"/>
<path d="M517.993 1050.5C515.898 1072.9 497.218 1092.5 488.14 1099.5H501.757C515.165 1095.9 518.168 1065.33 517.993 1050.5Z" fill="#454F3D"/>
<path d="M527 961.5C494.177 1002.43 506.882 1058.15 509.529 1098.5L506.353 1093.52C485.316 1034.23 498.412 994.878 527 961.5Z" fill="#454F3D"/>
<path d="M472.428 1099.5C464.964 1075.03 453.031 1030.9 449.215 1001.18C449.118 991.182 449.202 981.983 449.384 974.5C447.457 979.558 447.676 989.196 449.215 1001.18C449.582 1039.06 452.533 1088.42 462.477 1099.5H472.428Z" fill="#454F3D"/>
<path d="M517.993 1050.5C515.898 1072.9 497.218 1092.5 488.14 1099.5H501.757C515.165 1095.9 518.168 1065.33 517.993 1050.5Z" fill="#454F3D"/>
<path d="M1688.08 1104.5C1680.72 1080.03 1668.96 1035.9 1665.2 1006.18C1665.1 996.182 1665.18 986.983 1665.36 979.5C1663.47 984.558 1663.68 994.196 1665.2 1006.18C1665.56 1044.06 1668.47 1093.42 1678.27 1104.5H1688.08Z" fill="#576A49"/>
<path d="M1732.99 1055.5C1730.93 1077.9 1712.52 1097.5 1703.57 1104.5H1716.99C1730.21 1100.9 1733.17 1070.33 1732.99 1055.5Z" fill="#576A49"/>
<path d="M1429.36 1090.5H1446.93C1443.36 1085.2 1436.39 1071.58 1437 1059.56C1437.76 1044.54 1449.22 1042.77 1459.15 1033.93C1467.09 1026.86 1460.93 1002.7 1456.86 991.5C1464.49 1029.51 1434.71 1037.46 1429.36 1045.42C1425.08 1051.78 1427.58 1078.12 1429.36 1090.5Z" fill="#454F3D"/>
<path d="M1447.25 1126.5C1436.48 1083.05 1419.26 1004.66 1413.75 951.884C1413.61 934.127 1413.73 917.79 1414 904.5C1411.22 913.483 1411.53 930.601 1413.75 951.884C1414.28 1019.16 1418.54 1106.83 1432.89 1126.5H1447.25Z" fill="#454F3D"/>
<path d="M1512.99 1039.48C1509.97 1079.26 1483.01 1114.07 1469.92 1126.5H1489.56C1508.91 1120.11 1513.24 1065.82 1512.99 1039.48Z" fill="#454F3D"/>
<path d="M1090.06 1141.5C1096.46 1098.05 1106.69 1019.66 1109.96 966.884C1110.04 949.127 1109.97 932.79 1109.81 919.5C1111.47 928.483 1111.28 945.601 1109.96 966.884C1109.64 1034.16 1107.11 1121.83 1098.59 1141.5H1090.06Z" fill="#454F3D"/>
<path d="M1051.01 1054.48C1052.8 1094.26 1068.81 1129.07 1076.59 1141.5H1064.92C1053.43 1135.11 1050.86 1080.82 1051.01 1054.48Z" fill="#454F3D"/>
<path d="M1159 998.5C1104.5 1057.96 1100 1081.03 1100 1132.5H1109.01C1113.51 1057.96 1134.68 1037.55 1159 998.5Z" fill="#454F3D"/>
<path d="M1120.3 1095.5H1137.37C1133.91 1090.2 1127.13 1076.58 1127.72 1064.56C1128.46 1049.54 1139.6 1047.77 1149.26 1038.93C1156.98 1031.86 1150.99 1007.7 1147.03 996.5C1154.45 1034.51 1125.49 1042.46 1120.3 1050.42C1116.14 1056.78 1118.56 1083.12 1120.3 1095.5Z" fill="#454F3D"/>
<path d="M656.548 1120.5C645.992 1077.05 629.115 998.661 623.719 945.884C623.582 928.127 623.7 911.79 623.957 898.5C621.233 907.483 621.542 924.601 623.719 945.884C624.237 1013.16 628.41 1100.83 642.475 1120.5H656.548Z" fill="#454F3D"/>
<path d="M720.99 1033.48C718.027 1073.26 691.609 1108.07 678.77 1120.5H698.028C716.99 1114.11 721.237 1059.82 720.99 1033.48Z" fill="#454F3D"/>
<path d="M119.778 1138.5C123.55 1125.83 131.143 1103.4 138.467 1089.32C146.406 1080.03 152.227 1074.03 147.015 1077.49C144.395 1079.23 141.453 1083.58 138.467 1089.32C129.187 1100.18 117.012 1115.53 116.181 1125.5V1080.99C113.098 1093.33 107.445 1119.5 109.5 1125.5C106.246 1121.33 97.989 1113.6 91 1116C95.4537 1115.5 104.875 1119.3 106.931 1138.5H119.778Z" fill="#454F3D"/>
<path d="M45.2132 1147.5C50.0909 1124.61 59.9091 1084.1 69.3797 1058.66C79.6461 1041.88 87.173 1031.04 80.4326 1037.29C77.0451 1040.43 73.2413 1048.29 69.3797 1058.66C57.3793 1078.28 41.6359 1106 40.5615 1124.01V1043.61C36.5744 1065.89 29.2646 1113.17 31.9226 1124.01C27.714 1116.48 17.0374 1102.51 8 1106.85C13.7592 1105.94 25.942 1112.81 28.6001 1147.5H45.2132Z" fill="#454F3D"/>
<path d="M1257.61 1116.5C1264.24 1083.19 1277.6 1024.23 1290.48 987.21C1304.44 962.791 1314.68 947.009 1305.51 956.102C1300.9 960.672 1295.73 972.117 1290.48 987.21C1274.16 1015.75 1252.74 1056.1 1251.28 1082.32V965.305C1245.86 997.735 1235.92 1066.54 1239.53 1082.32C1233.81 1071.36 1219.29 1051.03 1207 1057.34C1214.83 1056.02 1231.4 1066.01 1235.02 1116.5H1257.61Z" fill="#3D5728"/>
<path d="M675.966 1120.5H660.84C663.909 1115.2 669.916 1101.58 669.39 1089.56C668.732 1074.54 658.867 1072.77 650.317 1063.93C643.477 1056.86 648.782 1032.7 652.29 1021.5C645.713 1059.51 671.363 1067.46 675.966 1075.42C679.649 1081.78 677.501 1108.12 675.966 1120.5Z" fill="#454F3D"/>
<path d="M545.84 1122.5C540.052 1089.19 528.401 1030.23 517.163 993.21C504.98 968.791 496.048 953.009 504.047 962.102C508.067 966.672 512.58 978.117 517.163 993.21C531.403 1021.75 550.085 1062.1 551.36 1088.32V971.305C556.092 1003.74 564.766 1072.54 561.612 1088.32C566.606 1077.36 579.276 1057.03 590 1063.34C583.166 1062.02 568.709 1072.01 565.555 1122.5H545.84Z" fill="#454F3D"/>
<path d="M1488 986.5C1542.5 1038.41 1547 1058.56 1547 1103.5H1537.99C1533.49 1038.41 1512.32 1020.59 1488 986.5Z" fill="#454F3D"/>
<path d="M1724.55 1109.5C1713.99 1066.05 1697.12 987.661 1691.72 934.884C1691.58 917.127 1691.7 900.79 1691.96 887.5C1689.23 896.483 1689.54 913.601 1691.72 934.884C1692.24 1002.16 1696.41 1089.83 1710.48 1109.5H1724.55Z" fill="#576A49"/>
<path d="M1788.99 1022.48C1786.03 1062.26 1759.61 1097.07 1746.77 1109.5H1766.03C1784.99 1103.11 1789.24 1048.82 1788.99 1022.48Z" fill="#576A49"/>
<path d="M1616.62 1112.5C1623.12 1079.19 1636.21 1020.23 1648.84 983.21C1662.53 958.791 1672.56 943.009 1663.58 952.102C1659.06 956.672 1653.99 968.117 1648.84 983.21C1632.84 1011.75 1611.85 1052.1 1610.42 1078.32V961.305C1605.1 993.735 1595.35 1062.54 1598.9 1078.32C1593.29 1067.36 1579.05 1047.03 1567 1053.34C1574.68 1052.02 1590.92 1062.01 1594.47 1112.5H1616.62Z" fill="#576A49"/>
<path d="M654 1041.5C592.115 1074.78 587 1087.69 587 1116.5H597.229C602.344 1074.78 626.382 1063.35 654 1041.5Z" fill="#454F3D"/>
<path d="M612.36 1116.5H600.161C602.636 1113.5 607.48 1105.8 607.056 1099C606.526 1090.5 598.57 1089.5 591.675 1084.5C586.159 1080.5 590.437 1066.83 593.266 1060.5C587.962 1082 608.647 1086.5 612.36 1091C615.33 1094.6 613.598 1109.5 612.36 1116.5Z" fill="#454F3D"/>
<path d="M1459.5 570L1444.5 575L957 -7.5H977L1459.5 570Z" fill="#262524"/>
<path d="M598.921 1118.5C606.279 1094.03 618.041 1049.9 621.802 1020.18C621.898 1010.18 621.815 1000.98 621.636 993.5C623.535 998.558 623.319 1008.2 621.802 1020.18C621.441 1058.06 618.532 1107.42 608.73 1118.5H598.921Z" fill="#454F3D"/>
<path d="M554.007 1069.5C556.072 1091.9 574.485 1111.5 583.433 1118.5H570.011C556.795 1114.9 553.835 1084.33 554.007 1069.5Z" fill="#454F3D"/>
<path d="M598.921 1118.5C606.279 1094.03 618.041 1049.9 621.802 1020.18C621.898 1010.18 621.815 1000.98 621.636 993.5C623.535 998.558 623.319 1008.2 621.802 1020.18C621.441 1058.06 618.532 1107.42 608.73 1118.5H598.921Z" fill="#454F3D"/>
<path d="M554.007 1069.5C556.072 1091.9 574.485 1111.5 583.433 1118.5H570.011C556.795 1114.9 553.835 1084.33 554.007 1069.5Z" fill="#454F3D"/>
<path d="M553 968.5C606.999 1009.73 586.097 1065.85 581.742 1106.5L586.967 1101.48C621.577 1041.77 600.032 1002.12 553 968.5Z" fill="#454F3D"/>
<path d="M1130.92 1127.5C1138.28 1103.03 1150.04 1058.9 1153.8 1029.18C1153.9 1019.18 1153.82 1009.98 1153.64 1002.5C1155.53 1007.56 1155.32 1017.2 1153.8 1029.18C1153.44 1067.06 1150.53 1116.42 1140.73 1127.5H1130.92Z" fill="#454F3D"/>
<path d="M1086.01 1078.5C1088.07 1100.9 1106.48 1120.5 1115.43 1127.5H1102.01C1088.79 1123.9 1085.83 1093.33 1086.01 1078.5Z" fill="#454F3D"/>
<path d="M1411 955.5C1321.4 1014.96 1314 1038.03 1314 1089.5H1328.81C1336.21 1014.96 1371.02 994.546 1411 955.5Z" fill="#454F3D"/>
<path d="M1350.7 1089.5H1333.63C1337.09 1084.2 1343.87 1070.58 1343.28 1058.56C1342.54 1043.54 1331.4 1041.77 1321.74 1032.93C1314.02 1025.86 1320.01 1001.7 1323.97 990.5C1316.55 1028.51 1345.51 1036.46 1350.7 1044.42C1354.86 1050.78 1352.44 1077.12 1350.7 1089.5Z" fill="#454F3D"/>
<path d="M1324.45 1121.5C1335.01 1078.05 1351.88 999.661 1357.28 946.884C1357.42 929.127 1357.3 912.79 1357.04 899.5C1359.77 908.483 1359.46 925.601 1357.28 946.884C1356.76 1014.16 1352.59 1101.83 1338.52 1121.5H1324.45Z" fill="#454F3D"/>
<path d="M1260.01 1034.48C1262.97 1074.26 1289.39 1109.07 1302.23 1121.5H1282.97C1264.01 1115.11 1259.76 1060.82 1260.01 1034.48Z" fill="#454F3D"/>
<path d="M1720.59 1116.5C1714.3 1073.05 1704.24 994.661 1701.02 941.884C1700.94 924.127 1701.01 907.79 1701.17 894.5C1699.54 903.483 1699.73 920.601 1701.02 941.884C1701.33 1009.16 1703.82 1096.83 1712.2 1116.5H1720.59Z" fill="#576A49"/>
<path d="M1758.99 1029.48C1757.23 1069.26 1741.48 1104.07 1733.83 1116.5H1745.31C1756.61 1110.11 1759.14 1055.82 1758.99 1029.48Z" fill="#576A49"/>
<path d="M794.092 39.7306L193 1123H1466.93L1668 480.5L1281.37 -1H1018.28H824.583L794.092 39.7306Z" fill="#FAE6BA" fill-opacity="0.2"/>
<path d="M1653 973.5C1706.57 1032.96 1711 1056.03 1711 1107.5H1702.15C1697.72 1032.96 1676.91 1012.55 1653 973.5Z" fill="#576A49"/>
<path d="M1618.7 1108.5H1601.63C1605.09 1103.2 1611.87 1089.58 1611.28 1077.56C1610.54 1062.54 1599.4 1060.77 1589.74 1051.93C1582.02 1044.86 1588.01 1020.7 1591.97 1009.5C1584.55 1047.51 1613.51 1055.46 1618.7 1063.42C1622.86 1069.78 1620.44 1096.12 1618.7 1108.5Z" fill="#454F3D"/>
<path d="M624 711L646 727V689.5L657 675.5L652.5 644L665.5 594.5L652.5 545.5L665.5 534L649 453L646 406V461.5L637.5 489.5L624 496.5H636L625.5 525L624 534H618.5L598 584L604 621.5L618.5 623L611.5 626.5V657L624 680V711Z" fill="#392E19" fill-opacity="0.8"/>
<path d="M1437.33 1115.5C1448.77 1082.19 1471.81 1023.23 1494.04 986.21C1518.13 961.791 1535.79 946.009 1519.98 955.102C1512.03 959.672 1503.1 971.117 1494.04 986.21C1465.88 1014.75 1428.93 1055.1 1426.41 1081.32V964.305C1417.05 996.735 1399.9 1065.54 1406.14 1081.32C1396.26 1070.36 1371.21 1050.03 1350 1056.34C1363.51 1055.02 1392.1 1065.01 1398.34 1115.5H1437.33Z" fill="#454F3D"/>
<path d="M1514.75 1132.5C1510.52 1081 1502.01 989.845 1493.8 932.616C1484.91 894.864 1478.38 870.466 1484.23 884.523C1487.16 891.588 1490.46 909.282 1493.8 932.616C1504.2 976.745 1517.85 1039.12 1518.78 1079.65V898.751C1522.24 948.888 1528.57 1055.26 1526.27 1079.65C1529.91 1062.71 1539.17 1031.28 1547 1041.03C1542.01 1039 1531.45 1054.45 1529.15 1132.5H1514.75Z" fill="#7A8471"/>
<path d="M1564.49 1138.5C1556.16 1087 1539.41 995.845 1523.25 938.616C1505.72 900.864 1492.88 876.466 1504.38 890.523C1510.16 897.588 1516.65 915.282 1523.25 938.616C1543.73 982.745 1570.59 1045.12 1572.43 1085.65V904.751C1579.23 954.888 1591.71 1061.26 1587.17 1085.65C1594.35 1068.71 1612.58 1037.28 1628 1047.03C1618.17 1045 1597.38 1060.45 1592.84 1138.5H1564.49Z" fill="#7A8471"/>
<path d="M396.452 1100.5C407.008 1057.05 423.885 978.661 429.281 925.884C429.418 908.127 429.3 891.79 429.043 878.5C431.767 887.483 431.458 904.601 429.281 925.884C428.763 993.159 424.59 1080.83 410.525 1100.5H396.452Z" fill="#435634"/>
<path d="M332.01 1013.48C334.973 1053.26 361.391 1088.07 374.23 1100.5H354.972C336.01 1094.11 331.763 1039.82 332.01 1013.48Z" fill="#435634"/>
<path d="M810.718 1117.5C807.011 1104.83 799.549 1082.4 792.351 1068.32C784.549 1059.03 778.828 1053.03 783.951 1056.49C786.526 1058.23 789.417 1062.58 792.351 1068.32C801.472 1079.18 813.437 1094.53 814.253 1104.5V1059.99C817.283 1072.33 822.839 1098.5 820.819 1104.5C824.017 1100.33 832.132 1092.6 839 1095C834.623 1094.5 825.364 1098.3 823.344 1117.5H810.718Z" fill="#49593D"/>
<path d="M1057.78 1060.5C1053.03 1037.61 1043.48 997.098 1034.26 971.663C1024.26 954.884 1016.94 944.04 1023.5 950.288C1026.8 953.428 1030.5 961.292 1034.26 971.663C1045.94 991.276 1061.26 1019 1062.31 1037.01V956.612C1066.19 978.895 1073.3 1026.17 1070.72 1037.01C1074.81 1029.48 1085.2 1015.51 1094 1019.85C1088.39 1018.94 1076.54 1025.81 1073.95 1060.5H1057.78Z" fill="#2A3422"/>
<path d="M1496.38 1132.5C1489.88 1099.19 1476.79 1040.23 1464.16 1003.21C1450.47 978.791 1440.44 963.009 1449.42 972.102C1453.94 976.672 1459.01 988.117 1464.16 1003.21C1480.16 1031.75 1501.15 1072.1 1502.58 1098.32V981.305C1507.9 1013.74 1517.65 1082.54 1514.1 1098.32C1519.71 1087.36 1533.95 1067.03 1546 1073.34C1538.32 1072.02 1522.08 1082.01 1518.53 1132.5H1496.38Z" fill="#454F3D"/>
<path d="M378.034 1100.5H393.16C390.091 1095.2 384.084 1081.58 384.61 1069.56C385.268 1054.54 395.133 1052.77 403.683 1043.93C410.523 1036.86 405.218 1012.7 401.71 1001.5C408.287 1039.51 382.637 1047.46 378.034 1055.42C374.351 1061.78 376.499 1088.12 378.034 1100.5Z" fill="#454F3D"/>
<path d="M326.663 1096.5C332.387 1063.19 343.907 1004.23 355.019 967.21C367.065 942.791 375.896 927.009 367.988 936.102C364.013 940.672 359.55 952.117 355.019 967.21C340.938 995.754 322.466 1036.1 321.206 1062.32V945.305C316.527 977.735 307.95 1046.54 311.069 1062.32C306.131 1051.36 293.604 1031.03 283 1037.34C289.757 1036.02 304.052 1046.01 307.171 1096.5H326.663Z" fill="#435634"/>
<path d="M486.5 97L-151 1158L1128 1149.21L1261 656L696 -1H560L486.5 97Z" fill="#FAE6BA" fill-opacity="0.2"/>
<path d="M1398 948.5C1365.18 989.427 1377.88 1045.15 1380.53 1085.5L1377.35 1080.52C1356.32 1021.23 1369.41 981.878 1398 948.5Z" fill="#454F3D"/>
<path d="M1282 1038.5C1344.81 1072.22 1350 1085.31 1350 1114.5H1339.62C1334.43 1072.22 1310.03 1060.65 1282 1038.5Z" fill="#454F3D"/>
<path d="M1631.64 1112.5H1643.84C1641.36 1109.5 1636.52 1101.8 1636.94 1095C1637.47 1086.5 1645.43 1085.5 1652.33 1080.5C1657.84 1076.5 1653.56 1062.83 1650.73 1056.5C1656.04 1078 1635.35 1082.5 1631.64 1087C1628.67 1090.6 1630.4 1105.5 1631.64 1112.5Z" fill="#454F3D"/>
<path d="M1343.08 1086.5C1335.72 1062.03 1323.96 1017.9 1320.2 988.18C1320.1 978.182 1320.18 968.983 1320.36 961.5C1318.47 966.558 1318.68 976.196 1320.2 988.18C1320.56 1026.06 1323.47 1075.42 1333.27 1086.5H1343.08Z" fill="#454F3D"/>
<path d="M1387.99 1037.5C1385.93 1059.9 1367.52 1079.5 1358.57 1086.5H1371.99C1385.21 1082.9 1388.17 1052.33 1387.99 1037.5Z" fill="#454F3D"/>
<path d="M1398 948.5C1365.18 989.427 1377.88 1045.15 1380.53 1085.5L1377.35 1080.52C1356.32 1021.23 1369.41 981.878 1398 948.5Z" fill="#454F3D"/>
<path d="M1343.08 1086.5C1335.72 1062.03 1323.96 1017.9 1320.2 988.18C1320.1 978.182 1320.18 968.983 1320.36 961.5C1318.47 966.558 1318.68 976.196 1320.2 988.18C1320.56 1026.06 1323.47 1075.42 1333.27 1086.5H1343.08Z" fill="#454F3D"/>
<path d="M1387.99 1037.5C1385.93 1059.9 1367.52 1079.5 1358.57 1086.5H1371.99C1385.21 1082.9 1388.17 1052.33 1387.99 1037.5Z" fill="#454F3D"/>
<path d="M1046 990.5C1015.29 1031.43 1027.18 1087.15 1029.66 1127.5L1026.69 1122.52C1007.01 1063.23 1019.26 1023.88 1046 990.5Z" fill="#454F3D"/>
<path d="M379.877 1086.5C367.081 1062.03 346.625 1017.9 340.083 988.18C339.917 978.182 340.06 968.983 340.373 961.5C337.07 966.558 337.445 976.197 340.083 988.18C340.711 1026.06 345.77 1075.42 362.818 1086.5H379.877Z" fill="#435634"/>
<path d="M457.988 1037.5C454.397 1059.9 422.374 1079.5 406.812 1086.5H430.155C453.14 1082.9 458.287 1052.33 457.988 1037.5Z" fill="#435634"/>
<path d="M602.897 1119.5C592.234 1076.05 575.187 997.661 569.736 944.884C569.598 927.127 569.717 910.79 569.977 897.5C567.225 906.483 567.538 923.601 569.736 944.884C570.26 1012.16 574.475 1099.83 588.682 1119.5H602.897Z" fill="#454F3D"/>
<path d="M667.99 1032.48C664.997 1072.26 638.312 1107.07 625.343 1119.5H644.796C663.95 1113.11 668.239 1058.82 667.99 1032.48Z" fill="#454F3D"/>
<path d="M1129.27 1086.5C1133.11 1073.83 1140.84 1051.4 1148.29 1037.32C1156.36 1028.03 1162.28 1022.03 1156.98 1025.49C1154.32 1027.23 1151.32 1031.58 1148.29 1037.32C1138.85 1048.18 1126.46 1063.53 1125.62 1073.5V1028.99C1122.48 1041.33 1116.73 1067.5 1118.82 1073.5C1115.51 1069.33 1107.11 1061.6 1100 1064C1104.53 1063.5 1114.11 1067.3 1116.21 1086.5H1129.27Z" fill="#454F3D"/>
<path d="M679 998.5C734.42 1050.41 739 1070.56 739 1115.5H729.84C725.26 1050.41 703.733 1032.59 679 998.5Z" fill="#454F3D"/>
<path d="M467.722 1101.5C449.167 1058.05 419.506 979.661 410.021 926.884C409.78 909.127 409.987 892.79 410.44 879.5C405.651 888.483 406.195 905.601 410.021 926.884C410.932 994.159 418.267 1081.83 442.986 1101.5H467.722Z" fill="#454F3D"/>
<path d="M580.982 1014.48C575.775 1054.26 529.342 1089.07 506.777 1101.5H540.625C573.952 1095.11 581.416 1040.82 580.982 1014.48Z" fill="#454F3D"/>
<path d="M119.327 1139.5C130.773 1106.19 153.813 1047.23 176.038 1010.21C200.129 985.791 217.793 970.009 201.975 979.102C194.026 983.672 185.1 995.117 176.038 1010.21C147.877 1038.75 110.932 1079.1 108.411 1105.32V988.305C99.0545 1020.74 81.9009 1089.54 88.1385 1105.32C78.2623 1094.36 53.2079 1074.03 32 1080.34C45.5148 1079.02 74.1039 1089.01 80.3415 1139.5H119.327Z" fill="#454F3D"/>
<path d="M435.944 1098.5C424.961 1055.05 407.403 976.661 401.788 923.884C401.646 906.127 401.768 889.79 402.036 876.5C399.202 885.483 399.524 902.601 401.788 923.884C402.327 991.159 406.669 1078.83 421.302 1098.5H435.944Z" fill="#454F3D"/>
<path d="M502.99 1011.48C499.907 1051.26 472.421 1086.07 459.063 1098.5H479.1C498.828 1092.11 503.247 1037.82 502.99 1011.48Z" fill="#454F3D"/>
<path d="M319 955.5C412.29 1014.96 420 1038.03 420 1089.5H404.58C396.87 1014.96 360.634 994.546 319 955.5Z" fill="#435634"/>
<path d="M810.704 1120.5H793.625C797.091 1115.2 803.873 1101.58 803.279 1089.56C802.536 1074.54 791.398 1072.77 781.745 1063.93C774.022 1056.86 780.012 1032.7 783.972 1021.5C776.547 1059.51 805.506 1067.46 810.704 1075.42C814.862 1081.78 812.437 1108.12 810.704 1120.5Z" fill="#49593D"/>
<path d="M1260.8 1116.5C1271.25 1073.05 1287.96 994.661 1293.3 941.884C1293.43 924.127 1293.32 907.79 1293.06 894.5C1295.76 903.483 1295.45 920.601 1293.3 941.884C1292.79 1009.16 1288.65 1096.83 1274.73 1116.5H1260.8Z" fill="#454F3D"/>
<path d="M1197.01 1029.48C1199.94 1069.26 1226.09 1104.07 1238.8 1116.5H1219.74C1200.97 1110.11 1196.77 1055.82 1197.01 1029.48Z" fill="#454F3D"/>
<path d="M667.879 1112.5C661.44 1079.19 648.48 1020.23 635.979 983.21C622.427 958.791 612.492 943.009 621.389 952.102C625.861 956.672 630.882 968.117 635.979 983.21C651.819 1011.75 672.601 1052.1 674.019 1078.32V961.305C679.282 993.735 688.931 1062.54 685.422 1078.32C690.977 1067.36 705.071 1047.03 717 1053.34C709.398 1052.02 693.317 1062.01 689.808 1112.5H667.879Z" fill="#454F3D"/>
<path d="M1242.1 1116.5H1257.71C1254.55 1111.2 1248.34 1097.58 1248.89 1085.56C1249.57 1070.54 1259.75 1068.77 1268.58 1059.93C1275.64 1052.86 1270.16 1028.7 1266.54 1017.5C1273.33 1055.51 1246.85 1063.46 1242.1 1071.42C1238.3 1077.78 1240.52 1104.12 1242.1 1116.5Z" fill="#454F3D"/>
<path d="M0.159603 1140.5C5.94792 1107.19 17.5988 1048.23 28.8372 1011.21C41.02 986.791 49.952 971.009 41.9534 980.102C37.9335 984.672 33.4197 996.117 28.8372 1011.21C14.5967 1039.75 -4.08537 1080.1 -5.36032 1106.32V989.305C-10.0918 1021.74 -18.766 1090.54 -15.6118 1106.32C-20.606 1095.36 -33.2756 1075.03 -44 1081.34C-37.1658 1080.02 -22.7088 1090.01 -19.5546 1140.5H0.159603Z" fill="#454F3D"/>
<path d="M896.778 1127.5C900.55 1114.83 908.143 1092.4 915.467 1078.32C923.406 1069.03 929.227 1063.03 924.015 1066.49C921.395 1068.23 918.453 1072.58 915.467 1078.32C906.187 1089.18 894.012 1104.53 893.181 1114.5V1069.99C890.098 1082.33 884.445 1108.5 886.5 1114.5C883.246 1110.33 874.989 1102.6 868 1105C872.454 1104.5 881.875 1108.3 883.931 1127.5H896.778Z" fill="#49593D"/>
<path d="M822.213 1136.5C827.091 1113.61 836.909 1073.1 846.38 1047.66C856.646 1030.88 864.173 1020.04 857.433 1026.29C854.045 1029.43 850.241 1037.29 846.38 1047.66C834.379 1067.28 818.636 1095 817.562 1113.01V1032.61C813.574 1054.89 806.265 1102.17 808.923 1113.01C804.714 1105.48 794.037 1091.51 785 1095.85C790.759 1094.94 802.942 1101.81 805.6 1136.5H822.213Z" fill="#49593D"/>
<path d="M965.16 1124.5C970.948 1091.19 982.599 1032.23 993.837 995.21C1006.02 970.791 1014.95 955.009 1006.95 964.102C1002.93 968.672 998.42 980.117 993.837 995.21C979.597 1023.75 960.915 1064.1 959.64 1090.32V973.305C954.908 1005.74 946.234 1074.54 949.388 1090.32C944.394 1079.36 931.724 1059.03 921 1065.34C927.834 1064.02 942.291 1074.01 945.445 1124.5H965.16Z" fill="#49593D"/>
<path d="M897.335 1128.5C908.651 1095.19 931.429 1036.23 953.401 999.21C977.219 974.791 994.681 959.009 979.044 968.102C971.185 972.672 962.36 984.117 953.401 999.21C925.56 1027.75 889.035 1068.1 886.543 1094.32V977.305C877.293 1009.74 860.334 1078.54 866.501 1094.32C856.737 1083.36 831.967 1063.03 811 1069.34C824.361 1068.02 852.625 1078.01 858.792 1128.5H897.335Z" fill="#49593D"/>
<path d="M777.663 1120.5C783.387 1087.19 794.907 1028.23 806.019 991.21C818.065 966.791 826.896 951.009 818.988 960.102C815.013 964.672 810.55 976.117 806.019 991.21C791.938 1019.75 773.466 1060.1 772.206 1086.32V969.305C767.527 1001.74 758.95 1070.54 762.069 1086.32C757.131 1075.36 744.604 1055.03 734 1061.34C740.757 1060.02 755.052 1070.01 758.171 1120.5H777.663Z" fill="#49593D"/>
<path d="M430.032 1132.5C422.994 1076.32 411.744 974.987 408.146 906.758C408.054 883.801 408.133 862.681 408.305 845.5C406.488 857.113 406.695 879.243 408.146 906.758C408.491 993.73 411.274 1107.07 420.65 1132.5H430.032Z" fill="#7A8471"/>
<path d="M472.993 1020C471.018 1071.43 453.406 1116.43 444.846 1132.5H457.685C470.327 1124.23 473.158 1054.05 472.993 1020Z" fill="#7A8471"/>
<path d="M445 974.5C481.947 1041.94 485 1068.12 485 1126.5H478.893C475.84 1041.94 461.489 1018.79 445 974.5Z" fill="#7A8471"/>
<path d="M1250 1000.5C1195.5 1052.41 1191 1072.56 1191 1117.5H1200.01C1204.51 1052.41 1225.68 1034.59 1250 1000.5Z" fill="#454F3D"/>
<path d="M1095.45 1132.5C1106.01 1089.05 1122.88 1010.66 1128.28 957.884C1128.42 940.127 1128.3 923.79 1128.04 910.5C1130.77 919.483 1130.46 936.601 1128.28 957.884C1127.76 1025.16 1123.59 1112.83 1109.52 1132.5H1095.45Z" fill="#454F3D"/>
<path d="M1031.01 1045.48C1033.97 1085.26 1060.39 1120.07 1073.23 1132.5H1053.97C1035.01 1126.11 1030.76 1071.82 1031.01 1045.48Z" fill="#454F3D"/>
<path d="M414 946.5C437.294 1009.53 428.277 1095.35 426.399 1157.5L428.653 1149.83C443.582 1058.52 434.288 997.907 414 946.5Z" fill="#7A8471"/>
<path d="M196.749 1156.5C192.521 1105 184.012 1013.84 175.804 956.616C166.907 918.864 160.383 894.466 166.225 908.523C169.161 915.588 172.458 933.282 175.804 956.616C186.205 1000.75 199.849 1063.12 200.78 1103.65V922.751C204.236 972.888 210.571 1079.26 208.267 1103.65C211.915 1086.71 221.168 1055.28 229 1065.03C224.009 1063 213.45 1078.45 211.147 1156.5H196.749Z" fill="#7A8471"/>
<path d="M246.49 1162.5C238.165 1111 221.408 1019.85 205.245 962.616C187.724 924.864 174.878 900.466 186.382 914.523C192.163 921.588 198.655 939.282 205.245 962.616C225.726 1006.75 252.595 1069.12 254.428 1109.65V928.751C261.233 978.888 273.708 1085.26 269.172 1109.65C276.355 1092.71 294.576 1061.28 310 1071.03C300.171 1069 279.379 1084.45 274.843 1162.5H246.49Z" fill="#7A8471"/>
<path d="M1127.37 1097.5C1121 1064.19 1108.17 1005.23 1095.8 968.21C1082.38 943.791 1072.55 928.009 1081.35 937.102C1085.78 941.672 1090.75 953.117 1095.8 968.21C1111.48 996.754 1132.05 1037.1 1133.45 1063.32V946.305C1138.66 978.735 1148.21 1047.54 1144.74 1063.32C1150.24 1052.36 1164.19 1032.03 1176 1038.34C1168.47 1037.02 1152.56 1047.01 1149.08 1097.5H1127.37Z" fill="#454F3D"/>
</g>
<defs>
<filter id="filter0_i_98_4674" x="714" y="375.5" width="54" height="684" filterUnits="userSpaceOnUse" color-interpolation-filters="sRGB">
<feFlood flood-opacity="0" result="BackgroundImageFix"/>
<feBlend mode="normal" in="SourceGraphic" in2="BackgroundImageFix" result="shape"/>
<feColorMatrix in="SourceAlpha" type="matrix" values="0 0 0 0 0 0 0 0 0 0 0 0 0 0 0 0 0 0 127 0" result="hardAlpha"/>
<feOffset dy="30"/>
<feGaussianBlur stdDeviation="25"/>
<feComposite in2="hardAlpha" operator="arithmetic" k2="-1" k3="1"/>
<feColorMatrix type="matrix" values="0 0 0 0 0 0 0 0 0 0 0 0 0 0 0 0 0 0 0.25 0"/>
<feBlend mode="normal" in2="shape" result="effect1_innerShadow_98_4674"/>
</filter>
<filter id="filter1_i_98_4674" x="645.484" y="339.837" width="31.0161" height="725.163" filterUnits="userSpaceOnUse" color-interpolation-filters="sRGB">
<feFlood flood-opacity="0" result="BackgroundImageFix"/>
<feBlend mode="normal" in="SourceGraphic" in2="BackgroundImageFix" result="shape"/>
<feColorMatrix in="SourceAlpha" type="matrix" values="0 0 0 0 0 0 0 0 0 0 0 0 0 0 0 0 0 0 127 0" result="hardAlpha"/>
<feOffset dy="30"/>
<feGaussianBlur stdDeviation="25"/>
<feComposite in2="hardAlpha" operator="arithmetic" k2="-1" k3="1"/>
<feColorMatrix type="matrix" values="0 0 0 0 0 0 0 0 0 0 0 0 0 0 0 0 0 0 0.25 0"/>
<feBlend mode="normal" in2="shape" result="effect1_innerShadow_98_4674"/>
</filter>
<filter id="filter2_i_98_4674" x="356" y="344.5" width="290" height="623" filterUnits="userSpaceOnUse" color-interpolation-filters="sRGB">
<feFlood flood-opacity="0" result="BackgroundImageFix"/>
<feBlend mode="normal" in="SourceGraphic" in2="BackgroundImageFix" result="shape"/>
<feColorMatrix in="SourceAlpha" type="matrix" values="0 0 0 0 0 0 0 0 0 0 0 0 0 0 0 0 0 0 127 0" result="hardAlpha"/>
<feOffset dy="30"/>
<feGaussianBlur stdDeviation="25"/>
<feComposite in2="hardAlpha" operator="arithmetic" k2="-1" k3="1"/>
<feColorMatrix type="matrix" values="0 0 0 0 0 0 0 0 0 0 0 0 0 0 0 0 0 0 0.5 0"/>
<feBlend mode="normal" in2="shape" result="effect1_innerShadow_98_4674"/>
</filter>
<filter id="filter3_i_98_4674" x="335" y="335.5" width="346" height="54" filterUnits="userSpaceOnUse" color-interpolation-filters="sRGB">
<feFlood flood-opacity="0" result="BackgroundImageFix"/>
<feBlend mode="normal" in="SourceGraphic" in2="BackgroundImageFix" result="shape"/>
<feColorMatrix in="SourceAlpha" type="matrix" values="0 0 0 0 0 0 0 0 0 0 0 0 0 0 0 0 0 0 127 0" result="hardAlpha"/>
<feOffset dy="30"/>
<feGaussianBlur stdDeviation="25"/>
<feComposite in2="hardAlpha" operator="arithmetic" k2="-1" k3="1"/>
<feColorMatrix type="matrix" values="0 0 0 0 0 0 0 0 0 0 0 0 0 0 0 0 0 0 0.25 0"/>
<feBlend mode="normal" in2="shape" result="effect1_innerShadow_98_4674"/>
</filter>
<filter id="filter4_i_98_4674" x="727" y="376.5" width="42" height="446" filterUnits="userSpaceOnUse" color-interpolation-filters="sRGB">
<feFlood flood-opacity="0" result="BackgroundImageFix"/>
<feBlend mode="normal" in="SourceGraphic" in2="BackgroundImageFix" result="shape"/>
<feColorMatrix in="SourceAlpha" type="matrix" values="0 0 0 0 0 0 0 0 0 0 0 0 0 0 0 0 0 0 127 0" result="hardAlpha"/>
<feOffset dy="30"/>
<feGaussianBlur stdDeviation="25"/>
<feComposite in2="hardAlpha" operator="arithmetic" k2="-1" k3="1"/>
<feColorMatrix type="matrix" values="0 0 0 0 0 0 0 0 0 0 0 0 0 0 0 0 0 0 0.25 0"/>
<feBlend mode="normal" in2="shape" result="effect1_innerShadow_98_4674"/>
</filter>
<filter id="filter5_i_98_4674" x="676" y="350.5" width="91" height="712" filterUnits="userSpaceOnUse" color-interpolation-filters="sRGB">
<feFlood flood-opacity="0" result="BackgroundImageFix"/>
<feBlend mode="normal" in="SourceGraphic" in2="BackgroundImageFix" result="shape"/>
<feColorMatrix in="SourceAlpha" type="matrix" values="0 0 0 0 0 0 0 0 0 0 0 0 0 0 0 0 0 0 127 0" result="hardAlpha"/>
<feOffset dx="40" dy="30"/>
<feGaussianBlur stdDeviation="25"/>
<feComposite in2="hardAlpha" operator="arithmetic" k2="-1" k3="1"/>
<feColorMatrix type="matrix" values="0 0 0 0 0 0 0 0 0 0 0 0 0 0 0 0 0 0 0.25 0"/>
<feBlend mode="normal" in2="shape" result="effect1_innerShadow_98_4674"/>
</filter>
<filter id="filter6_i_98_4674" x="523" y="377.5" width="14" height="124" filterUnits="userSpaceOnUse" color-interpolation-filters="sRGB">
<feFlood flood-opacity="0" result="BackgroundImageFix"/>
<feBlend mode="normal" in="SourceGraphic" in2="BackgroundImageFix" result="shape"/>
<feColorMatrix in="SourceAlpha" type="matrix" values="0 0 0 0 0 0 0 0 0 0 0 0 0 0 0 0 0 0 127 0" result="hardAlpha"/>
<feOffset dy="10"/>
<feGaussianBlur stdDeviation="10"/>
<feComposite in2="hardAlpha" operator="arithmetic" k2="-1" k3="1"/>
<feColorMatrix type="matrix" values="0 0 0 0 0.218236 0 0 0 0 0.221909 0 0 0 0 0.226713 0 0 0 1 0"/>
<feBlend mode="normal" in2="shape" result="effect1_innerShadow_98_4674"/>
</filter>
<filter id="filter7_i_98_4674" x="560" y="377.5" width="14" height="124" filterUnits="userSpaceOnUse" color-interpolation-filters="sRGB">
<feFlood flood-opacity="0" result="BackgroundImageFix"/>
<feBlend mode="normal" in="SourceGraphic" in2="BackgroundImageFix" result="shape"/>
<feColorMatrix in="SourceAlpha" type="matrix" values="0 0 0 0 0 0 0 0 0 0 0 0 0 0 0 0 0 0 127 0" result="hardAlpha"/>
<feOffset dy="10"/>
<feGaussianBlur stdDeviation="10"/>
<feComposite in2="hardAlpha" operator="arithmetic" k2="-1" k3="1"/>
<feColorMatrix type="matrix" values="0 0 0 0 0.218236 0 0 0 0 0.221909 0 0 0 0 0.226713 0 0 0 1 0"/>
<feBlend mode="normal" in2="shape" result="effect1_innerShadow_98_4674"/>
</filter>
<filter id="filter8_i_98_4674" x="541" y="377.5" width="15" height="124" filterUnits="userSpaceOnUse" color-interpolation-filters="sRGB">
<feFlood flood-opacity="0" result="BackgroundImageFix"/>
<feBlend mode="normal" in="SourceGraphic" in2="BackgroundImageFix" result="shape"/>
<feColorMatrix in="SourceAlpha" type="matrix" values="0 0 0 0 0 0 0 0 0 0 0 0 0 0 0 0 0 0 127 0" result="hardAlpha"/>
<feOffset dy="10"/>
<feGaussianBlur stdDeviation="10"/>
<feComposite in2="hardAlpha" operator="arithmetic" k2="-1" k3="1"/>
<feColorMatrix type="matrix" values="0 0 0 0 0.218236 0 0 0 0 0.221909 0 0 0 0 0.226713 0 0 0 1 0"/>
<feBlend mode="normal" in2="shape" result="effect1_innerShadow_98_4674"/>
</filter>
<filter id="filter9_i_98_4674" x="402" y="632.5" width="15" height="88" filterUnits="userSpaceOnUse" color-interpolation-filters="sRGB">
<feFlood flood-opacity="0" result="BackgroundImageFix"/>
<feBlend mode="normal" in="SourceGraphic" in2="BackgroundImageFix" result="shape"/>
<feColorMatrix in="SourceAlpha" type="matrix" values="0 0 0 0 0 0 0 0 0 0 0 0 0 0 0 0 0 0 127 0" result="hardAlpha"/>
<feOffset dy="10"/>
<feGaussianBlur stdDeviation="10"/>
<feComposite in2="hardAlpha" operator="arithmetic" k2="-1" k3="1"/>
<feColorMatrix type="matrix" values="0 0 0 0 0.218236 0 0 0 0 0.221909 0 0 0 0 0.226713 0 0 0 1 0"/>
<feBlend mode="normal" in2="shape" result="effect1_innerShadow_98_4674"/>
</filter>
<filter id="filter10_i_98_4674" x="439" y="632.5" width="14" height="88" filterUnits="userSpaceOnUse" color-interpolation-filters="sRGB">
<feFlood flood-opacity="0" result="BackgroundImageFix"/>
<feBlend mode="normal" in="SourceGraphic" in2="BackgroundImageFix" result="shape"/>
<feColorMatrix in="SourceAlpha" type="matrix" values="0 0 0 0 0 0 0 0 0 0 0 0 0 0 0 0 0 0 127 0" result="hardAlpha"/>
<feOffset dy="10"/>
<feGaussianBlur stdDeviation="10"/>
<feComposite in2="hardAlpha" operator="arithmetic" k2="-1" k3="1"/>
<feColorMatrix type="matrix" values="0 0 0 0 0.218236 0 0 0 0 0.221909 0 0 0 0 0.226713 0 0 0 1 0"/>
<feBlend mode="normal" in2="shape" result="effect1_innerShadow_98_4674"/>
</filter>
<filter id="filter11_i_98_4674" x="421" y="632.5" width="14" height="88" filterUnits="userSpaceOnUse" color-interpolation-filters="sRGB">
<feFlood flood-opacity="0" result="BackgroundImageFix"/>
<feBlend mode="normal" in="SourceGraphic" in2="BackgroundImageFix" result="shape"/>
<feColorMatrix in="SourceAlpha" type="matrix" values="0 0 0 0 0 0 0 0 0 0 0 0 0 0 0 0 0 0 127 0" result="hardAlpha"/>
<feOffset dy="10"/>
<feGaussianBlur stdDeviation="10"/>
<feComposite in2="hardAlpha" operator="arithmetic" k2="-1" k3="1"/>
<feColorMatrix type="matrix" values="0 0 0 0 0.218236 0 0 0 0 0.221909 0 0 0 0 0.226713 0 0 0 1 0"/>
<feBlend mode="normal" in2="shape" result="effect1_innerShadow_98_4674"/>
</filter>
<filter id="filter12_i_98_4674" x="402" y="509.5" width="15" height="106" filterUnits="userSpaceOnUse" color-interpolation-filters="sRGB">
<feFlood flood-opacity="0" result="BackgroundImageFix"/>
<feBlend mode="normal" in="SourceGraphic" in2="BackgroundImageFix" result="shape"/>
<feColorMatrix in="SourceAlpha" type="matrix" values="0 0 0 0 0 0 0 0 0 0 0 0 0 0 0 0 0 0 127 0" result="hardAlpha"/>
<feOffset dy="10"/>
<feGaussianBlur stdDeviation="10"/>
<feComposite in2="hardAlpha" operator="arithmetic" k2="-1" k3="1"/>
<feColorMatrix type="matrix" values="0 0 0 0 0.218236 0 0 0 0 0.221909 0 0 0 0 0.226713 0 0 0 1 0"/>
<feBlend mode="normal" in2="shape" result="effect1_innerShadow_98_4674"/>
</filter>
<filter id="filter13_i_98_4674" x="439" y="509.5" width="14" height="106" filterUnits="userSpaceOnUse" color-interpolation-filters="sRGB">
<feFlood flood-opacity="0" result="BackgroundImageFix"/>
<feBlend mode="normal" in="SourceGraphic" in2="BackgroundImageFix" result="shape"/>
<feColorMatrix in="SourceAlpha" type="matrix" values="0 0 0 0 0 0 0 0 0 0 0 0 0 0 0 0 0 0 127 0" result="hardAlpha"/>
<feOffset dy="10"/>
<feGaussianBlur stdDeviation="10"/>
<feComposite in2="hardAlpha" operator="arithmetic" k2="-1" k3="1"/>
<feColorMatrix type="matrix" values="0 0 0 0 0.218236 0 0 0 0 0.221909 0 0 0 0 0.226713 0 0 0 1 0"/>
<feBlend mode="normal" in2="shape" result="effect1_innerShadow_98_4674"/>
</filter>
<filter id="filter14_i_98_4674" x="421" y="509.5" width="14" height="106" filterUnits="userSpaceOnUse" color-interpolation-filters="sRGB">
<feFlood flood-opacity="0" result="BackgroundImageFix"/>
<feBlend mode="normal" in="SourceGraphic" in2="BackgroundImageFix" result="shape"/>
<feColorMatrix in="SourceAlpha" type="matrix" values="0 0 0 0 0 0 0 0 0 0 0 0 0 0 0 0 0 0 127 0" result="hardAlpha"/>
<feOffset dy="10"/>
<feGaussianBlur stdDeviation="10"/>
<feComposite in2="hardAlpha" operator="arithmetic" k2="-1" k3="1"/>
<feColorMatrix type="matrix" values="0 0 0 0 0.218236 0 0 0 0 0.221909 0 0 0 0 0.226713 0 0 0 1 0"/>
<feBlend mode="normal" in2="shape" result="effect1_innerShadow_98_4674"/>
</filter>
<filter id="filter15_i_98_4674" x="517" y="731.5" width="15" height="123" filterUnits="userSpaceOnUse" color-interpolation-filters="sRGB">
<feFlood flood-opacity="0" result="BackgroundImageFix"/>
<feBlend mode="normal" in="SourceGraphic" in2="BackgroundImageFix" result="shape"/>
<feColorMatrix in="SourceAlpha" type="matrix" values="0 0 0 0 0 0 0 0 0 0 0 0 0 0 0 0 0 0 127 0" result="hardAlpha"/>
<feOffset dy="10"/>
<feGaussianBlur stdDeviation="10"/>
<feComposite in2="hardAlpha" operator="arithmetic" k2="-1" k3="1"/>
<feColorMatrix type="matrix" values="0 0 0 0 0.218236 0 0 0 0 0.221909 0 0 0 0 0.226713 0 0 0 1 0"/>
<feBlend mode="normal" in2="shape" result="effect1_innerShadow_98_4674"/>
</filter>
<filter id="filter16_i_98_4674" x="555" y="731.5" width="14" height="123" filterUnits="userSpaceOnUse" color-interpolation-filters="sRGB">
<feFlood flood-opacity="0" result="BackgroundImageFix"/>
<feBlend mode="normal" in="SourceGraphic" in2="BackgroundImageFix" result="shape"/>
<feColorMatrix in="SourceAlpha" type="matrix" values="0 0 0 0 0 0 0 0 0 0 0 0 0 0 0 0 0 0 127 0" result="hardAlpha"/>
<feOffset dy="10"/>
<feGaussianBlur stdDeviation="10"/>
<feComposite in2="hardAlpha" operator="arithmetic" k2="-1" k3="1"/>
<feColorMatrix type="matrix" values="0 0 0 0 0.218236 0 0 0 0 0.221909 0 0 0 0 0.226713 0 0 0 1 0"/>
<feBlend mode="normal" in2="shape" result="effect1_innerShadow_98_4674"/>
</filter>
<filter id="filter17_i_98_4674" x="536" y="731.5" width="15" height="123" filterUnits="userSpaceOnUse" color-interpolation-filters="sRGB">
<feFlood flood-opacity="0" result="BackgroundImageFix"/>
<feBlend mode="normal" in="SourceGraphic" in2="BackgroundImageFix" result="shape"/>
<feColorMatrix in="SourceAlpha" type="matrix" values="0 0 0 0 0 0 0 0 0 0 0 0 0 0 0 0 0 0 127 0" result="hardAlpha"/>
<feOffset dy="10"/>
<feGaussianBlur stdDeviation="10"/>
<feComposite in2="hardAlpha" operator="arithmetic" k2="-1" k3="1"/>
<feColorMatrix type="matrix" values="0 0 0 0 0.218236 0 0 0 0 0.221909 0 0 0 0 0.226713 0 0 0 1 0"/>
<feBlend mode="normal" in2="shape" result="effect1_innerShadow_98_4674"/>
</filter>
<filter id="filter18_i_98_4674" x="402" y="731.5" width="15" height="123" filterUnits="userSpaceOnUse" color-interpolation-filters="sRGB">
<feFlood flood-opacity="0" result="BackgroundImageFix"/>
<feBlend mode="normal" in="SourceGraphic" in2="BackgroundImageFix" result="shape"/>
<feColorMatrix in="SourceAlpha" type="matrix" values="0 0 0 0 0 0 0 0 0 0 0 0 0 0 0 0 0 0 127 0" result="hardAlpha"/>
<feOffset dy="10"/>
<feGaussianBlur stdDeviation="10"/>
<feComposite in2="hardAlpha" operator="arithmetic" k2="-1" k3="1"/>
<feColorMatrix type="matrix" values="0 0 0 0 0.218236 0 0 0 0 0.221909 0 0 0 0 0.226713 0 0 0 1 0"/>
<feBlend mode="normal" in2="shape" result="effect1_innerShadow_98_4674"/>
</filter>
<filter id="filter19_i_98_4674" x="439" y="731.5" width="14" height="123" filterUnits="userSpaceOnUse" color-interpolation-filters="sRGB">
<feFlood flood-opacity="0" result="BackgroundImageFix"/>
<feBlend mode="normal" in="SourceGraphic" in2="BackgroundImageFix" result="shape"/>
<feColorMatrix in="SourceAlpha" type="matrix" values="0 0 0 0 0 0 0 0 0 0 0 0 0 0 0 0 0 0 127 0" result="hardAlpha"/>
<feOffset dy="10"/>
<feGaussianBlur stdDeviation="10"/>
<feComposite in2="hardAlpha" operator="arithmetic" k2="-1" k3="1"/>
<feColorMatrix type="matrix" values="0 0 0 0 0.218236 0 0 0 0 0.221909 0 0 0 0 0.226713 0 0 0 1 0"/>
<feBlend mode="normal" in2="shape" result="effect1_innerShadow_98_4674"/>
</filter>
<filter id="filter20_i_98_4674" x="421" y="731.5" width="14" height="123" filterUnits="userSpaceOnUse" color-interpolation-filters="sRGB">
<feFlood flood-opacity="0" result="BackgroundImageFix"/>
<feBlend mode="normal" in="SourceGraphic" in2="BackgroundImageFix" result="shape"/>
<feColorMatrix in="SourceAlpha" type="matrix" values="0 0 0 0 0 0 0 0 0 0 0 0 0 0 0 0 0 0 127 0" result="hardAlpha"/>
<feOffset dy="10"/>
<feGaussianBlur stdDeviation="10"/>
<feComposite in2="hardAlpha" operator="arithmetic" k2="-1" k3="1"/>
<feColorMatrix type="matrix" values="0 0 0 0 0.218236 0 0 0 0 0.221909 0 0 0 0 0.226713 0 0 0 1 0"/>
<feBlend mode="normal" in2="shape" result="effect1_innerShadow_98_4674"/>
</filter>
<filter id="filter21_i_98_4674" x="517" y="632.5" width="15" height="88" filterUnits="userSpaceOnUse" color-interpolation-filters="sRGB">
<feFlood flood-opacity="0" result="BackgroundImageFix"/>
<feBlend mode="normal" in="SourceGraphic" in2="BackgroundImageFix" result="shape"/>
<feColorMatrix in="SourceAlpha" type="matrix" values="0 0 0 0 0 0 0 0 0 0 0 0 0 0 0 0 0 0 127 0" result="hardAlpha"/>
<feOffset dy="10"/>
<feGaussianBlur stdDeviation="10"/>
<feComposite in2="hardAlpha" operator="arithmetic" k2="-1" k3="1"/>
<feColorMatrix type="matrix" values="0 0 0 0 0.218236 0 0 0 0 0.221909 0 0 0 0 0.226713 0 0 0 1 0"/>
<feBlend mode="normal" in2="shape" result="effect1_innerShadow_98_4674"/>
</filter>
<filter id="filter22_i_98_4674" x="555" y="632.5" width="14" height="88" filterUnits="userSpaceOnUse" color-interpolation-filters="sRGB">
<feFlood flood-opacity="0" result="BackgroundImageFix"/>
<feBlend mode="normal" in="SourceGraphic" in2="BackgroundImageFix" result="shape"/>
<feColorMatrix in="SourceAlpha" type="matrix" values="0 0 0 0 0 0 0 0 0 0 0 0 0 0 0 0 0 0 127 0" result="hardAlpha"/>
<feOffset dy="10"/>
<feGaussianBlur stdDeviation="10"/>
<feComposite in2="hardAlpha" operator="arithmetic" k2="-1" k3="1"/>
<feColorMatrix type="matrix" values="0 0 0 0 0.218236 0 0 0 0 0.221909 0 0 0 0 0.226713 0 0 0 1 0"/>
<feBlend mode="normal" in2="shape" result="effect1_innerShadow_98_4674"/>
</filter>
<filter id="filter23_i_98_4674" x="536" y="632.5" width="15" height="88" filterUnits="userSpaceOnUse" color-interpolation-filters="sRGB">
<feFlood flood-opacity="0" result="BackgroundImageFix"/>
<feBlend mode="normal" in="SourceGraphic" in2="BackgroundImageFix" result="shape"/>
<feColorMatrix in="SourceAlpha" type="matrix" values="0 0 0 0 0 0 0 0 0 0 0 0 0 0 0 0 0 0 127 0" result="hardAlpha"/>
<feOffset dy="10"/>
<feGaussianBlur stdDeviation="10"/>
<feComposite in2="hardAlpha" operator="arithmetic" k2="-1" k3="1"/>
<feColorMatrix type="matrix" values="0 0 0 0 0.218236 0 0 0 0 0.221909 0 0 0 0 0.226713 0 0 0 1 0"/>
<feBlend mode="normal" in2="shape" result="effect1_innerShadow_98_4674"/>
</filter>
<clipPath id="clip0_98_4674">
<rect width="1728" height="1117" fill="white"/>
</clipPath>
</defs>
</svg>
